<svg width="272" height="270" viewBox="0 0 272 270" fill="none" xmlns="http://www.w3.org/2000/svg">
<path d="M39.9 91.5C36.3 91.5 33.55 93.05 31.65 96.15C30.85 97.55 30.4 99.15 30.3 100.95V195C30.3 203.4 27.65 210.5 22.35 216.3C17.15 222.1 10.7 225 3 225V223.65C7.9 221.95 12.05 218.25 15.45 212.55C18.85 206.95 20.55 200.95 20.55 194.55V100.95C20.45 98.35 19.45 96.15 17.55 94.35C15.75 92.45 13.55 91.5 10.95 91.5H9V90H41.85V91.5H39.9ZM268.633 227.4C269.433 227.4 270.233 227.4 271.033 227.4V229.4C267.3 229.933 263.099 230.2 258.433 230.2C253.899 230.2 248.233 229.2 241.433 227.2C234.766 225.2 228.699 221.467 223.233 216C212.033 204.8 205.233 190.267 202.833 172.4L190.633 83.4L149.033 177.4C145.299 185.533 143.033 192.333 142.233 197.8H140.233L88.4328 85.2L79.6328 184.6C79.3661 186.867 80.0328 188.867 81.6328 190.6C83.3661 192.333 85.2328 193.2 87.2328 193.2H90.4328V195H51.6328V193H54.8328C58.4328 193 61.5661 191.933 64.2328 189.8C67.0328 187.533 68.7661 184.6 69.4328 181L82.0328 71.8C70.2995 48.7333 56.2328 37.2 39.8328 37.2C38.3661 37.2 36.8328 37.2667 35.2328 37.4V35.4C38.8328 34.4667 41.7661 34 44.0328 34C46.2995 34 48.7661 34.1333 51.4328 34.4C54.0995 34.5333 57.2328 35.1333 60.8328 36.2C64.4328 37.2667 67.8328 38.8667 71.0328 41C74.2328 43 77.0328 45.1333 79.4328 47.4C81.8328 49.5333 84.0995 51.9333 86.2328 54.6C89.8328 59.4 92.6995 64 94.8328 68.4L143.033 172.8L196.833 52.2H198.633L217.233 170.6C220.033 189.267 226.033 203.4 235.233 213C244.566 222.6 255.699 227.4 268.633 227.4Z" fill="white"/>
<path d="M31.65 96.15L30.7974 95.6274L30.7894 95.6405L30.7818 95.6539L31.65 96.15ZM30.3 100.95L29.3015 100.895L29.3 100.922V100.95H30.3ZM22.35 216.3L21.6118 215.625L21.6054 215.632L22.35 216.3ZM3 225H2V226H3V225ZM3 223.65L2.67223 222.705L2 222.938V223.65H3ZM15.45 212.55L14.5952 212.031L14.5912 212.038L15.45 212.55ZM20.55 100.95H21.55V100.931L21.5493 100.912L20.55 100.95ZM17.55 94.35L16.824 95.0377L16.8426 95.0574L16.8623 95.076L17.55 94.35ZM9 91.5H8V92.5H9V91.5ZM9 90V89H8V90H9ZM41.85 90H42.85V89H41.85V90ZM41.85 91.5V92.5H42.85V91.5H41.85ZM39.9 90.5C35.9479 90.5 32.877 92.2344 30.7974 95.6274L32.5026 96.6726C34.223 93.8655 36.6521 92.5 39.9 92.5V90.5ZM30.7818 95.6539C29.896 97.2039 29.4091 98.958 29.3015 100.895L31.2985 101.005C31.3909 99.342 31.804 97.8961 32.5182 96.6461L30.7818 95.6539ZM29.3 100.95V195H31.3V100.95H29.3ZM29.3 195C29.3 203.169 26.7311 210.023 21.6118 215.625L23.0882 216.975C28.5689 210.977 31.3 203.631 31.3 195H29.3ZM21.6054 215.632C16.5926 221.224 10.4121 224 3 224V226C10.9879 226 17.7074 222.976 23.0946 216.968L21.6054 215.632ZM4 225V223.65H2V225H4ZM3.32777 224.595C8.50639 222.798 12.8227 218.907 16.3088 213.062L14.5912 212.038C11.2773 217.593 7.29361 221.102 2.67223 222.705L3.32777 224.595ZM16.3048 213.069C19.7974 207.316 21.55 201.138 21.55 194.55H19.55C19.55 200.762 17.9026 206.584 14.5952 212.031L16.3048 213.069ZM21.55 194.55V100.95H19.55V194.55H21.55ZM21.5493 100.912C21.4392 98.0488 20.3262 95.6025 18.2377 93.624L16.8623 95.076C18.5738 96.6975 19.4608 98.6512 19.5507 100.988L21.5493 100.912ZM18.276 93.6623C16.2885 91.5644 13.8267 90.5 10.95 90.5V92.5C13.2733 92.5 15.2115 93.3356 16.824 95.0377L18.276 93.6623ZM10.95 90.5H9V92.5H10.95V90.5ZM10 91.5V90H8V91.5H10ZM9 91H41.85V89H9V91ZM40.85 90V91.5H42.85V90H40.85ZM41.85 90.5H39.9V92.5H41.85V90.5ZM271.033 227.4H272.033V226.4H271.033V227.4ZM271.033 229.4L271.174 230.39L272.033 230.267V229.4H271.033ZM241.433 227.2L241.145 228.158L241.151 228.159L241.433 227.2ZM223.233 216L222.526 216.707L222.526 216.707L223.233 216ZM202.833 172.4L203.824 172.267L203.824 172.264L202.833 172.4ZM190.633 83.4L191.624 83.2642L191.145 79.772L189.718 82.9953L190.633 83.4ZM149.033 177.4L149.942 177.817L149.947 177.805L149.033 177.4ZM142.233 197.8V198.8H143.097L143.222 197.945L142.233 197.8ZM140.233 197.8L139.324 198.218L139.592 198.8H140.233V197.8ZM88.4328 85.2L89.3413 84.7821L87.7686 81.3634L87.4367 85.1118L88.4328 85.2ZM79.6328 184.6L80.626 184.717L80.6276 184.703L80.6289 184.688L79.6328 184.6ZM81.6328 190.6L80.898 191.278L80.9116 191.293L80.9257 191.307L81.6328 190.6ZM90.4328 193.2H91.4328V192.2H90.4328V193.2ZM90.4328 195V196H91.4328V195H90.4328ZM51.6328 195H50.6328V196H51.6328V195ZM51.6328 193V192H50.6328V193H51.6328ZM64.2328 189.8L64.8575 190.581L64.862 190.577L64.2328 189.8ZM69.4328 181L70.4161 181.182L70.4223 181.149L70.4262 181.115L69.4328 181ZM82.0328 71.8L83.0262 71.9146L83.0608 71.6152L82.9241 71.3466L82.0328 71.8ZM35.2328 37.4H34.2328V38.4868L35.3159 38.3965L35.2328 37.4ZM35.2328 35.4L34.9818 34.432L34.2328 34.6262V35.4H35.2328ZM51.4328 34.4L51.3333 35.395L51.358 35.3975L51.3829 35.3987L51.4328 34.4ZM71.0328 41L70.4781 41.832L70.4903 41.8402L70.5028 41.848L71.0328 41ZM79.4328 47.4L78.7462 48.127L78.7572 48.1374L78.7685 48.1474L79.4328 47.4ZM86.2328 54.6L87.0328 54L87.0234 53.9875L87.0137 53.9753L86.2328 54.6ZM94.8328 68.4L95.7407 67.9808L95.7368 67.9722L95.7326 67.9637L94.8328 68.4ZM143.033 172.8L142.125 173.219L143.048 175.22L143.946 173.207L143.033 172.8ZM196.833 52.2V51.2H196.184L195.92 51.7926L196.833 52.2ZM198.633 52.2L199.621 52.0448L199.488 51.2H198.633V52.2ZM217.233 170.6L218.222 170.452L218.221 170.445L217.233 170.6ZM235.233 213L234.511 213.692L234.516 213.697L235.233 213ZM268.633 228.4C268.634 228.4 268.636 228.4 268.638 228.4C268.639 228.4 268.641 228.4 268.642 228.4C268.644 228.4 268.645 228.4 268.647 228.4C268.648 228.4 268.65 228.4 268.652 228.4C268.653 228.4 268.655 228.4 268.656 228.4C268.658 228.4 268.659 228.4 268.661 228.4C268.663 228.4 268.664 228.4 268.666 228.4C268.667 228.4 268.669 228.4 268.67 228.4C268.672 228.4 268.673 228.4 268.675 228.4C268.677 228.4 268.678 228.4 268.68 228.4C268.681 228.4 268.683 228.4 268.684 228.4C268.686 228.4 268.688 228.4 268.689 228.4C268.691 228.4 268.692 228.4 268.694 228.4C268.695 228.4 268.697 228.4 268.698 228.4C268.7 228.4 268.702 228.4 268.703 228.4C268.705 228.4 268.706 228.4 268.708 228.4C268.709 228.4 268.711 228.4 268.713 228.4C268.714 228.4 268.716 228.4 268.717 228.4C268.719 228.4 268.72 228.4 268.722 228.4C268.723 228.4 268.725 228.4 268.727 228.4C268.728 228.4 268.73 228.4 268.731 228.4C268.733 228.4 268.734 228.4 268.736 228.4C268.738 228.4 268.739 228.4 268.741 228.4C268.742 228.4 268.744 228.4 268.745 228.4C268.747 228.4 268.748 228.4 268.75 228.4C268.752 228.4 268.753 228.4 268.755 228.4C268.756 228.4 268.758 228.4 268.759 228.4C268.761 228.4 268.763 228.4 268.764 228.4C268.766 228.4 268.767 228.4 268.769 228.4C268.77 228.4 268.772 228.4 268.773 228.4C268.775 228.4 268.777 228.4 268.778 228.4C268.78 228.4 268.781 228.4 268.783 228.4C268.784 228.4 268.786 228.4 268.788 228.4C268.789 228.4 268.791 228.4 268.792 228.4C268.794 228.4 268.795 228.4 268.797 228.4C268.798 228.4 268.8 228.4 268.802 228.4C268.803 228.4 268.805 228.4 268.806 228.4C268.808 228.4 268.809 228.4 268.811 228.4C268.813 228.4 268.814 228.4 268.816 228.4C268.817 228.4 268.819 228.4 268.82 228.4C268.822 228.4 268.823 228.4 268.825 228.4C268.827 228.4 268.828 228.4 268.83 228.4C268.831 228.4 268.833 228.4 268.834 228.4C268.836 228.4 268.838 228.4 268.839 228.4C268.841 228.4 268.842 228.4 268.844 228.4C268.845 228.4 268.847 228.4 268.848 228.4C268.85 228.4 268.852 228.4 268.853 228.4C268.855 228.4 268.856 228.4 268.858 228.4C268.859 228.4 268.861 228.4 268.863 228.4C268.864 228.4 268.866 228.4 268.867 228.4C268.869 228.4 268.87 228.4 268.872 228.4C268.873 228.4 268.875 228.4 268.877 228.4C268.878 228.4 268.88 228.4 268.881 228.4C268.883 228.4 268.884 228.4 268.886 228.4C268.888 228.4 268.889 228.4 268.891 228.4C268.892 228.4 268.894 228.4 268.895 228.4C268.897 228.4 268.898 228.4 268.9 228.4C268.902 228.4 268.903 228.4 268.905 228.4C268.906 228.4 268.908 228.4 268.909 228.4C268.911 228.4 268.913 228.4 268.914 228.4C268.916 228.4 268.917 228.4 268.919 228.4C268.92 228.4 268.922 228.4 268.923 228.4C268.925 228.4 268.927 228.4 268.928 228.4C268.93 228.4 268.931 228.4 268.933 228.4C268.934 228.4 268.936 228.4 268.938 228.4C268.939 228.4 268.941 228.4 268.942 228.4C268.944 228.4 268.945 228.4 268.947 228.4C268.948 228.4 268.95 228.4 268.952 228.4C268.953 228.4 268.955 228.4 268.956 228.4C268.958 228.4 268.959 228.4 268.961 228.4C268.963 228.4 268.964 228.4 268.966 228.4C268.967 228.4 268.969 228.4 268.97 228.4C268.972 228.4 268.973 228.4 268.975 228.4C268.977 228.4 268.978 228.4 268.98 228.4C268.981 228.4 268.983 228.4 268.984 228.4C268.986 228.4 268.988 228.4 268.989 228.4C268.991 228.4 268.992 228.4 268.994 228.4C268.995 228.4 268.997 228.4 268.998 228.4C269 228.4 269.002 228.4 269.003 228.4C269.005 228.4 269.006 228.4 269.008 228.4C269.009 228.4 269.011 228.4 269.013 228.4C269.014 228.4 269.016 228.4 269.017 228.4C269.019 228.4 269.02 228.4 269.022 228.4C269.023 228.4 269.025 228.4 269.027 228.4C269.028 228.4 269.03 228.4 269.031 228.4C269.033 228.4 269.034 228.4 269.036 228.4C269.038 228.4 269.039 228.4 269.041 228.4C269.042 228.4 269.044 228.4 269.045 228.4C269.047 228.4 269.048 228.4 269.05 228.4C269.052 228.4 269.053 228.4 269.055 228.4C269.056 228.4 269.058 228.4 269.059 228.4C269.061 228.4 269.063 228.4 269.064 228.4C269.066 228.4 269.067 228.4 269.069 228.4C269.07 228.4 269.072 228.4 269.073 228.4C269.075 228.4 269.077 228.4 269.078 228.4C269.08 228.4 269.081 228.4 269.083 228.4C269.084 228.4 269.086 228.4 269.088 228.4C269.089 228.4 269.091 228.4 269.092 228.4C269.094 228.4 269.095 228.4 269.097 228.4C269.098 228.4 269.1 228.4 269.102 228.4C269.103 228.4 269.105 228.4 269.106 228.4C269.108 228.4 269.109 228.4 269.111 228.4C269.113 228.4 269.114 228.4 269.116 228.4C269.117 228.4 269.119 228.4 269.12 228.4C269.122 228.4 269.123 228.4 269.125 228.4C269.127 228.4 269.128 228.4 269.13 228.4C269.131 228.4 269.133 228.4 269.134 228.4C269.136 228.4 269.138 228.4 269.139 228.4C269.141 228.4 269.142 228.4 269.144 228.4C269.145 228.4 269.147 228.4 269.148 228.4C269.15 228.4 269.152 228.4 269.153 228.4C269.155 228.4 269.156 228.4 269.158 228.4C269.159 228.4 269.161 228.4 269.163 228.4C269.164 228.4 269.166 228.4 269.167 228.4C269.169 228.4 269.17 228.4 269.172 228.4C269.173 228.4 269.175 228.4 269.177 228.4C269.178 228.4 269.18 228.4 269.181 228.4C269.183 228.4 269.184 228.4 269.186 228.4C269.188 228.4 269.189 228.4 269.191 228.4C269.192 228.4 269.194 228.4 269.195 228.4C269.197 228.4 269.198 228.4 269.2 228.4C269.202 228.4 269.203 228.4 269.205 228.4C269.206 228.4 269.208 228.4 269.209 228.4C269.211 228.4 269.213 228.4 269.214 228.4C269.216 228.4 269.217 228.4 269.219 228.4C269.22 228.4 269.222 228.4 269.223 228.4C269.225 228.4 269.227 228.4 269.228 228.4C269.23 228.4 269.231 228.4 269.233 228.4C269.234 228.4 269.236 228.4 269.238 228.4C269.239 228.4 269.241 228.4 269.242 228.4C269.244 228.4 269.245 228.4 269.247 228.4C269.248 228.4 269.25 228.4 269.252 228.4C269.253 228.4 269.255 228.4 269.256 228.4C269.258 228.4 269.259 228.4 269.261 228.4C269.263 228.4 269.264 228.4 269.266 228.4C269.267 228.4 269.269 228.4 269.27 228.4C269.272 228.4 269.273 228.4 269.275 228.4C269.277 228.4 269.278 228.4 269.28 228.4C269.281 228.4 269.283 228.4 269.284 228.4C269.286 228.4 269.288 228.4 269.289 228.4C269.291 228.4 269.292 228.4 269.294 228.4C269.295 228.4 269.297 228.4 269.298 228.4C269.3 228.4 269.302 228.4 269.303 228.4C269.305 228.4 269.306 228.4 269.308 228.4C269.309 228.4 269.311 228.4 269.313 228.4C269.314 228.4 269.316 228.4 269.317 228.4C269.319 228.4 269.32 228.4 269.322 228.4C269.323 228.4 269.325 228.4 269.327 228.4C269.328 228.4 269.33 228.4 269.331 228.4C269.333 228.4 269.334 228.4 269.336 228.4C269.338 228.4 269.339 228.4 269.341 228.4C269.342 228.4 269.344 228.4 269.345 228.4C269.347 228.4 269.348 228.4 269.35 228.4C269.352 228.4 269.353 228.4 269.355 228.4C269.356 228.4 269.358 228.4 269.359 228.4C269.361 228.4 269.363 228.4 269.364 228.4C269.366 228.4 269.367 228.4 269.369 228.4C269.37 228.4 269.372 228.4 269.373 228.4C269.375 228.4 269.377 228.4 269.378 228.4C269.38 228.4 269.381 228.4 269.383 228.4C269.384 228.4 269.386 228.4 269.388 228.4C269.389 228.4 269.391 228.4 269.392 228.4C269.394 228.4 269.395 228.4 269.397 228.4C269.398 228.4 269.4 228.4 269.402 228.4C269.403 228.4 269.405 228.4 269.406 228.4C269.408 228.4 269.409 228.4 269.411 228.4C269.413 228.4 269.414 228.4 269.416 228.4C269.417 228.4 269.419 228.4 269.42 228.4C269.422 228.4 269.423 228.4 269.425 228.4C269.427 228.4 269.428 228.4 269.43 228.4C269.431 228.4 269.433 228.4 269.434 228.4C269.436 228.4 269.438 228.4 269.439 228.4C269.441 228.4 269.442 228.4 269.444 228.4C269.445 228.4 269.447 228.4 269.448 228.4C269.45 228.4 269.452 228.4 269.453 228.4C269.455 228.4 269.456 228.4 269.458 228.4C269.459 228.4 269.461 228.4 269.463 228.4C269.464 228.4 269.466 228.4 269.467 228.4C269.469 228.4 269.47 228.4 269.472 228.4C269.473 228.4 269.475 228.4 269.477 228.4C269.478 228.4 269.48 228.4 269.481 228.4C269.483 228.4 269.484 228.4 269.486 228.4C269.488 228.4 269.489 228.4 269.491 228.4C269.492 228.4 269.494 228.4 269.495 228.4C269.497 228.4 269.498 228.4 269.5 228.4C269.502 228.4 269.503 228.4 269.505 228.4C269.506 228.4 269.508 228.4 269.509 228.4C269.511 228.4 269.513 228.4 269.514 228.4C269.516 228.4 269.517 228.4 269.519 228.4C269.52 228.4 269.522 228.4 269.523 228.4C269.525 228.4 269.527 228.4 269.528 228.4C269.53 228.4 269.531 228.4 269.533 228.4C269.534 228.4 269.536 228.4 269.538 228.4C269.539 228.4 269.541 228.4 269.542 228.4C269.544 228.4 269.545 228.4 269.547 228.4C269.548 228.4 269.55 228.4 269.552 228.4C269.553 228.4 269.555 228.4 269.556 228.4C269.558 228.4 269.559 228.4 269.561 228.4C269.563 228.4 269.564 228.4 269.566 228.4C269.567 228.4 269.569 228.4 269.57 228.4C269.572 228.4 269.573 228.4 269.575 228.4C269.577 228.4 269.578 228.4 269.58 228.4C269.581 228.4 269.583 228.4 269.584 228.4C269.586 228.4 269.588 228.4 269.589 228.4C269.591 228.4 269.592 228.4 269.594 228.4C269.595 228.4 269.597 228.4 269.598 228.4C269.6 228.4 269.602 228.4 269.603 228.4C269.605 228.4 269.606 228.4 269.608 228.4C269.609 228.4 269.611 228.4 269.613 228.4C269.614 228.4 269.616 228.4 269.617 228.4C269.619 228.4 269.62 228.4 269.622 228.4C269.623 228.4 269.625 228.4 269.627 228.4C269.628 228.4 269.63 228.4 269.631 228.4C269.633 228.4 269.634 228.4 269.636 228.4C269.638 228.4 269.639 228.4 269.641 228.4C269.642 228.4 269.644 228.4 269.645 228.4C269.647 228.4 269.648 228.4 269.65 228.4C269.652 228.4 269.653 228.4 269.655 228.4C269.656 228.4 269.658 228.4 269.659 228.4C269.661 228.4 269.663 228.4 269.664 228.4C269.666 228.4 269.667 228.4 269.669 228.4C269.67 228.4 269.672 228.4 269.673 228.4C269.675 228.4 269.677 228.4 269.678 228.4C269.68 228.4 269.681 228.4 269.683 228.4C269.684 228.4 269.686 228.4 269.688 228.4C269.689 228.4 269.691 228.4 269.692 228.4C269.694 228.4 269.695 228.4 269.697 228.4C269.698 228.4 269.7 228.4 269.702 228.4C269.703 228.4 269.705 228.4 269.706 228.4C269.708 228.4 269.709 228.4 269.711 228.4C269.713 228.4 269.714 228.4 269.716 228.4C269.717 228.4 269.719 228.4 269.72 228.4C269.722 228.4 269.723 228.4 269.725 228.4C269.727 228.4 269.728 228.4 269.73 228.4C269.731 228.4 269.733 228.4 269.734 228.4C269.736 228.4 269.738 228.4 269.739 228.4C269.741 228.4 269.742 228.4 269.744 228.4C269.745 228.4 269.747 228.4 269.748 228.4C269.75 228.4 269.752 228.4 269.753 228.4C269.755 228.4 269.756 228.4 269.758 228.4C269.759 228.4 269.761 228.4 269.763 228.4C269.764 228.4 269.766 228.4 269.767 228.4C269.769 228.4 269.77 228.4 269.772 228.4C269.773 228.4 269.775 228.4 269.777 228.4C269.778 228.4 269.78 228.4 269.781 228.4C269.783 228.4 269.784 228.4 269.786 228.4C269.788 228.4 269.789 228.4 269.791 228.4C269.792 228.4 269.794 228.4 269.795 228.4C269.797 228.4 269.798 228.4 269.8 228.4C269.802 228.4 269.803 228.4 269.805 228.4C269.806 228.4 269.808 228.4 269.809 228.4C269.811 228.4 269.813 228.4 269.814 228.4C269.816 228.4 269.817 228.4 269.819 228.4C269.82 228.4 269.822 228.4 269.823 228.4C269.825 228.4 269.827 228.4 269.828 228.4C269.83 228.4 269.831 228.4 269.833 228.4C269.834 228.4 269.836 228.4 269.838 228.4C269.839 228.4 269.841 228.4 269.842 228.4C269.844 228.4 269.845 228.4 269.847 228.4C269.848 228.4 269.85 228.4 269.852 228.4C269.853 228.4 269.855 228.4 269.856 228.4C269.858 228.4 269.859 228.4 269.861 228.4C269.863 228.4 269.864 228.4 269.866 228.4C269.867 228.4 269.869 228.4 269.87 228.4C269.872 228.4 269.873 228.4 269.875 228.4C269.877 228.4 269.878 228.4 269.88 228.4C269.881 228.4 269.883 228.4 269.884 228.4C269.886 228.4 269.888 228.4 269.889 228.4C269.891 228.4 269.892 228.4 269.894 228.4C269.895 228.4 269.897 228.4 269.898 228.4C269.9 228.4 269.902 228.4 269.903 228.4C269.905 228.4 269.906 228.4 269.908 228.4C269.909 228.4 269.911 228.4 269.913 228.4C269.914 228.4 269.916 228.4 269.917 228.4C269.919 228.4 269.92 228.4 269.922 228.4C269.923 228.4 269.925 228.4 269.927 228.4C269.928 228.4 269.93 228.4 269.931 228.4C269.933 228.4 269.934 228.4 269.936 228.4C269.938 228.4 269.939 228.4 269.941 228.4C269.942 228.4 269.944 228.4 269.945 228.4C269.947 228.4 269.948 228.4 269.95 228.4C269.952 228.4 269.953 228.4 269.955 228.4C269.956 228.4 269.958 228.4 269.959 228.4C269.961 228.4 269.963 228.4 269.964 228.4C269.966 228.4 269.967 228.4 269.969 228.4C269.97 228.4 269.972 228.4 269.973 228.4C269.975 228.4 269.977 228.4 269.978 228.4C269.98 228.4 269.981 228.4 269.983 228.4C269.984 228.4 269.986 228.4 269.988 228.4C269.989 228.4 269.991 228.4 269.992 228.4C269.994 228.4 269.995 228.4 269.997 228.4C269.998 228.4 270 228.4 270.002 228.4C270.003 228.4 270.005 228.4 270.006 228.4C270.008 228.4 270.009 228.4 270.011 228.4C270.013 228.4 270.014 228.4 270.016 228.4C270.017 228.4 270.019 228.4 270.02 228.4C270.022 228.4 270.023 228.4 270.025 228.4C270.027 228.4 270.028 228.4 270.03 228.4C270.031 228.4 270.033 228.4 270.034 228.4C270.036 228.4 270.038 228.4 270.039 228.4C270.041 228.4 270.042 228.4 270.044 228.4C270.045 228.4 270.047 228.4 270.048 228.4C270.05 228.4 270.052 228.4 270.053 228.4C270.055 228.4 270.056 228.4 270.058 228.4C270.059 228.4 270.061 228.4 270.063 228.4C270.064 228.4 270.066 228.4 270.067 228.4C270.069 228.4 270.07 228.4 270.072 228.4C270.073 228.4 270.075 228.4 270.077 228.4C270.078 228.4 270.08 228.4 270.081 228.4C270.083 228.4 270.084 228.4 270.086 228.4C270.088 228.4 270.089 228.4 270.091 228.4C270.092 228.4 270.094 228.4 270.095 228.4C270.097 228.4 270.098 228.4 270.1 228.4C270.102 228.4 270.103 228.4 270.105 228.4C270.106 228.4 270.108 228.4 270.109 228.4C270.111 228.4 270.113 228.4 270.114 228.4C270.116 228.4 270.117 228.4 270.119 228.4C270.12 228.4 270.122 228.4 270.123 228.4C270.125 228.4 270.127 228.4 270.128 228.4C270.13 228.4 270.131 228.4 270.133 228.4C270.134 228.4 270.136 228.4 270.138 228.4C270.139 228.4 270.141 228.4 270.142 228.4C270.144 228.4 270.145 228.4 270.147 228.4C270.148 228.4 270.15 228.4 270.152 228.4C270.153 228.4 270.155 228.4 270.156 228.4C270.158 228.4 270.159 228.4 270.161 228.4C270.163 228.4 270.164 228.4 270.166 228.4C270.167 228.4 270.169 228.4 270.17 228.4C270.172 228.4 270.173 228.4 270.175 228.4C270.177 228.4 270.178 228.4 270.18 228.4C270.181 228.4 270.183 228.4 270.184 228.4C270.186 228.4 270.188 228.4 270.189 228.4C270.191 228.4 270.192 228.4 270.194 228.4C270.195 228.4 270.197 228.4 270.198 228.4C270.2 228.4 270.202 228.4 270.203 228.4C270.205 228.4 270.206 228.4 270.208 228.4C270.209 228.4 270.211 228.4 270.213 228.4C270.214 228.4 270.216 228.4 270.217 228.4C270.219 228.4 270.22 228.4 270.222 228.4C270.223 228.4 270.225 228.4 270.227 228.4C270.228 228.4 270.23 228.4 270.231 228.4C270.233 228.4 270.234 228.4 270.236 228.4C270.238 228.4 270.239 228.4 270.241 228.4C270.242 228.4 270.244 228.4 270.245 228.4C270.247 228.4 270.248 228.4 270.25 228.4C270.252 228.4 270.253 228.4 270.255 228.4C270.256 228.4 270.258 228.4 270.259 228.4C270.261 228.4 270.263 228.4 270.264 228.4C270.266 228.4 270.267 228.4 270.269 228.4C270.27 228.4 270.272 228.4 270.273 228.4C270.275 228.4 270.277 228.4 270.278 228.4C270.28 228.4 270.281 228.4 270.283 228.4C270.284 228.4 270.286 228.4 270.288 228.4C270.289 228.4 270.291 228.4 270.292 228.4C270.294 228.4 270.295 228.4 270.297 228.4C270.298 228.4 270.3 228.4 270.302 228.4C270.303 228.4 270.305 228.4 270.306 228.4C270.308 228.4 270.309 228.4 270.311 228.4C270.313 228.4 270.314 228.4 270.316 228.4C270.317 228.4 270.319 228.4 270.32 228.4C270.322 228.4 270.323 228.4 270.325 228.4C270.327 228.4 270.328 228.4 270.33 228.4C270.331 228.4 270.333 228.4 270.334 228.4C270.336 228.4 270.338 228.4 270.339 228.4C270.341 228.4 270.342 228.4 270.344 228.4C270.345 228.4 270.347 228.4 270.348 228.4C270.35 228.4 270.352 228.4 270.353 228.4C270.355 228.4 270.356 228.4 270.358 228.4C270.359 228.4 270.361 228.4 270.363 228.4C270.364 228.4 270.366 228.4 270.367 228.4C270.369 228.4 270.37 228.4 270.372 228.4C270.373 228.4 270.375 228.4 270.377 228.4C270.378 228.4 270.38 228.4 270.381 228.4C270.383 228.4 270.384 228.4 270.386 228.4C270.388 228.4 270.389 228.4 270.391 228.4C270.392 228.4 270.394 228.4 270.395 228.4C270.397 228.4 270.398 228.4 270.4 228.4C270.402 228.4 270.403 228.4 270.405 228.4C270.406 228.4 270.408 228.4 270.409 228.4C270.411 228.4 270.413 228.4 270.414 228.4C270.416 228.4 270.417 228.4 270.419 228.4C270.42 228.4 270.422 228.4 270.423 228.4C270.425 228.4 270.427 228.4 270.428 228.4C270.43 228.4 270.431 228.4 270.433 228.4C270.434 228.4 270.436 228.4 270.438 228.4C270.439 228.4 270.441 228.4 270.442 228.4C270.444 228.4 270.445 228.4 270.447 228.4C270.448 228.4 270.45 228.4 270.452 228.4C270.453 228.4 270.455 228.4 270.456 228.4C270.458 228.4 270.459 228.4 270.461 228.4C270.463 228.4 270.464 228.4 270.466 228.4C270.467 228.4 270.469 228.4 270.47 228.4C270.472 228.4 270.473 228.4 270.475 228.4C270.477 228.4 270.478 228.4 270.48 228.4C270.481 228.4 270.483 228.4 270.484 228.4C270.486 228.4 270.488 228.4 270.489 228.4C270.491 228.4 270.492 228.4 270.494 228.4C270.495 228.4 270.497 228.4 270.498 228.4C270.5 228.4 270.502 228.4 270.503 228.4C270.505 228.4 270.506 228.4 270.508 228.4C270.509 228.4 270.511 228.4 270.513 228.4C270.514 228.4 270.516 228.4 270.517 228.4C270.519 228.4 270.52 228.4 270.522 228.4C270.523 228.4 270.525 228.4 270.527 228.4C270.528 228.4 270.53 228.4 270.531 228.4C270.533 228.4 270.534 228.4 270.536 228.4C270.538 228.4 270.539 228.4 270.541 228.4C270.542 228.4 270.544 228.4 270.545 228.4C270.547 228.4 270.548 228.4 270.55 228.4C270.552 228.4 270.553 228.4 270.555 228.4C270.556 228.4 270.558 228.4 270.559 228.4C270.561 228.4 270.563 228.4 270.564 228.4C270.566 228.4 270.567 228.4 270.569 228.4C270.57 228.4 270.572 228.4 270.573 228.4C270.575 228.4 270.577 228.4 270.578 228.4C270.58 228.4 270.581 228.4 270.583 228.4C270.584 228.4 270.586 228.4 270.588 228.4C270.589 228.4 270.591 228.4 270.592 228.4C270.594 228.4 270.595 228.4 270.597 228.4C270.598 228.4 270.6 228.4 270.602 228.4C270.603 228.4 270.605 228.4 270.606 228.4C270.608 228.4 270.609 228.4 270.611 228.4C270.613 228.4 270.614 228.4 270.616 228.4C270.617 228.4 270.619 228.4 270.62 228.4C270.622 228.4 270.623 228.4 270.625 228.4C270.627 228.4 270.628 228.4 270.63 228.4C270.631 228.4 270.633 228.4 270.634 228.4C270.636 228.4 270.638 228.4 270.639 228.4C270.641 228.4 270.642 228.4 270.644 228.4C270.645 228.4 270.647 228.4 270.648 228.4C270.65 228.4 270.652 228.4 270.653 228.4C270.655 228.4 270.656 228.4 270.658 228.4C270.659 228.4 270.661 228.4 270.663 228.4C270.664 228.4 270.666 228.4 270.667 228.4C270.669 228.4 270.67 228.4 270.672 228.4C270.673 228.4 270.675 228.4 270.677 228.4C270.678 228.4 270.68 228.4 270.681 228.4C270.683 228.4 270.684 228.4 270.686 228.4C270.688 228.4 270.689 228.4 270.691 228.4C270.692 228.4 270.694 228.4 270.695 228.4C270.697 228.4 270.698 228.4 270.7 228.4C270.702 228.4 270.703 228.4 270.705 228.4C270.706 228.4 270.708 228.4 270.709 228.4C270.711 228.4 270.713 228.4 270.714 228.4C270.716 228.4 270.717 228.4 270.719 228.4C270.72 228.4 270.722 228.4 270.723 228.4C270.725 228.4 270.727 228.4 270.728 228.4C270.73 228.4 270.731 228.4 270.733 228.4C270.734 228.4 270.736 228.4 270.738 228.4C270.739 228.4 270.741 228.4 270.742 228.4C270.744 228.4 270.745 228.4 270.747 228.4C270.748 228.4 270.75 228.4 270.752 228.4C270.753 228.4 270.755 228.4 270.756 228.4C270.758 228.4 270.759 228.4 270.761 228.4C270.763 228.4 270.764 228.4 270.766 228.4C270.767 228.4 270.769 228.4 270.77 228.4C270.772 228.4 270.773 228.4 270.775 228.4C270.777 228.4 270.778 228.4 270.78 228.4C270.781 228.4 270.783 228.4 270.784 228.4C270.786 228.4 270.788 228.4 270.789 228.4C270.791 228.4 270.792 228.4 270.794 228.4C270.795 228.4 270.797 228.4 270.798 228.4C270.8 228.4 270.802 228.4 270.803 228.4C270.805 228.4 270.806 228.4 270.808 228.4C270.809 228.4 270.811 228.4 270.813 228.4C270.814 228.4 270.816 228.4 270.817 228.4C270.819 228.4 270.82 228.4 270.822 228.4C270.823 228.4 270.825 228.4 270.827 228.4C270.828 228.4 270.83 228.4 270.831 228.4C270.833 228.4 270.834 228.4 270.836 228.4C270.838 228.4 270.839 228.4 270.841 228.4C270.842 228.4 270.844 228.4 270.845 228.4C270.847 228.4 270.848 228.4 270.85 228.4C270.852 228.4 270.853 228.4 270.855 228.4C270.856 228.4 270.858 228.4 270.859 228.4C270.861 228.4 270.863 228.4 270.864 228.4C270.866 228.4 270.867 228.4 270.869 228.4C270.87 228.4 270.872 228.4 270.873 228.4C270.875 228.4 270.877 228.4 270.878 228.4C270.88 228.4 270.881 228.4 270.883 228.4C270.884 228.4 270.886 228.4 270.888 228.4C270.889 228.4 270.891 228.4 270.892 228.4C270.894 228.4 270.895 228.4 270.897 228.4C270.898 228.4 270.9 228.4 270.902 228.4C270.903 228.4 270.905 228.4 270.906 228.4C270.908 228.4 270.909 228.4 270.911 228.4C270.913 228.4 270.914 228.4 270.916 228.4C270.917 228.4 270.919 228.4 270.92 228.4C270.922 228.4 270.923 228.4 270.925 228.4C270.927 228.4 270.928 228.4 270.93 228.4C270.931 228.4 270.933 228.4 270.934 228.4C270.936 228.4 270.938 228.4 270.939 228.4C270.941 228.4 270.942 228.4 270.944 228.4C270.945 228.4 270.947 228.4 270.948 228.4C270.95 228.4 270.952 228.4 270.953 228.4C270.955 228.4 270.956 228.4 270.958 228.4C270.959 228.4 270.961 228.4 270.963 228.4C270.964 228.4 270.966 228.4 270.967 228.4C270.969 228.4 270.97 228.4 270.972 228.4C270.973 228.4 270.975 228.4 270.977 228.4C270.978 228.4 270.98 228.4 270.981 228.4C270.983 228.4 270.984 228.4 270.986 228.4C270.988 228.4 270.989 228.4 270.991 228.4C270.992 228.4 270.994 228.4 270.995 228.4C270.997 228.4 270.998 228.4 271 228.4C271.002 228.4 271.003 228.4 271.005 228.4C271.006 228.4 271.008 228.4 271.009 228.4C271.011 228.4 271.013 228.4 271.014 228.4C271.016 228.4 271.017 228.4 271.019 228.4C271.02 228.4 271.022 228.4 271.023 228.4C271.025 228.4 271.027 228.4 271.028 228.4C271.03 228.4 271.031 228.4 271.033 228.4V226.4C271.031 226.4 271.03 226.4 271.028 226.4C271.027 226.4 271.025 226.4 271.023 226.4C271.022 226.4 271.02 226.4 271.019 226.4C271.017 226.4 271.016 226.4 271.014 226.4C271.013 226.4 271.011 226.4 271.009 226.4C271.008 226.4 271.006 226.4 271.005 226.4C271.003 226.4 271.002 226.4 271 226.4C270.998 226.4 270.997 226.4 270.995 226.4C270.994 226.4 270.992 226.4 270.991 226.4C270.989 226.4 270.988 226.4 270.986 226.4C270.984 226.4 270.983 226.4 270.981 226.4C270.98 226.4 270.978 226.4 270.977 226.4C270.975 226.4 270.973 226.4 270.972 226.4C270.97 226.4 270.969 226.4 270.967 226.4C270.966 226.4 270.964 226.4 270.963 226.4C270.961 226.4 270.959 226.4 270.958 226.4C270.956 226.4 270.955 226.4 270.953 226.4C270.952 226.4 270.95 226.4 270.948 226.4C270.947 226.4 270.945 226.4 270.944 226.4C270.942 226.4 270.941 226.4 270.939 226.4C270.938 226.4 270.936 226.4 270.934 226.4C270.933 226.4 270.931 226.4 270.93 226.4C270.928 226.4 270.927 226.4 270.925 226.4C270.923 226.4 270.922 226.4 270.92 226.4C270.919 226.4 270.917 226.4 270.916 226.4C270.914 226.4 270.913 226.4 270.911 226.4C270.909 226.4 270.908 226.4 270.906 226.4C270.905 226.4 270.903 226.4 270.902 226.4C270.9 226.4 270.898 226.4 270.897 226.4C270.895 226.4 270.894 226.4 270.892 226.4C270.891 226.4 270.889 226.4 270.888 226.4C270.886 226.4 270.884 226.4 270.883 226.4C270.881 226.4 270.88 226.4 270.878 226.4C270.877 226.4 270.875 226.4 270.873 226.4C270.872 226.4 270.87 226.4 270.869 226.4C270.867 226.4 270.866 226.4 270.864 226.4C270.863 226.4 270.861 226.4 270.859 226.4C270.858 226.4 270.856 226.4 270.855 226.4C270.853 226.4 270.852 226.4 270.85 226.4C270.848 226.4 270.847 226.4 270.845 226.4C270.844 226.4 270.842 226.4 270.841 226.4C270.839 226.4 270.838 226.4 270.836 226.4C270.834 226.4 270.833 226.4 270.831 226.4C270.83 226.4 270.828 226.4 270.827 226.4C270.825 226.4 270.823 226.4 270.822 226.4C270.82 226.4 270.819 226.4 270.817 226.4C270.816 226.4 270.814 226.4 270.813 226.4C270.811 226.4 270.809 226.4 270.808 226.4C270.806 226.4 270.805 226.4 270.803 226.4C270.802 226.4 270.8 226.4 270.798 226.4C270.797 226.4 270.795 226.4 270.794 226.4C270.792 226.4 270.791 226.4 270.789 226.4C270.788 226.4 270.786 226.4 270.784 226.4C270.783 226.4 270.781 226.4 270.78 226.4C270.778 226.4 270.777 226.4 270.775 226.4C270.773 226.4 270.772 226.4 270.77 226.4C270.769 226.4 270.767 226.4 270.766 226.4C270.764 226.4 270.763 226.4 270.761 226.4C270.759 226.4 270.758 226.4 270.756 226.4C270.755 226.4 270.753 226.4 270.752 226.4C270.75 226.4 270.748 226.4 270.747 226.4C270.745 226.4 270.744 226.4 270.742 226.4C270.741 226.4 270.739 226.4 270.738 226.4C270.736 226.4 270.734 226.4 270.733 226.4C270.731 226.4 270.73 226.4 270.728 226.4C270.727 226.4 270.725 226.4 270.723 226.4C270.722 226.4 270.72 226.4 270.719 226.4C270.717 226.4 270.716 226.4 270.714 226.4C270.713 226.4 270.711 226.4 270.709 226.4C270.708 226.4 270.706 226.4 270.705 226.4C270.703 226.4 270.702 226.4 270.7 226.4C270.698 226.4 270.697 226.4 270.695 226.4C270.694 226.4 270.692 226.4 270.691 226.4C270.689 226.4 270.688 226.4 270.686 226.4C270.684 226.4 270.683 226.4 270.681 226.4C270.68 226.4 270.678 226.4 270.677 226.4C270.675 226.4 270.673 226.4 270.672 226.4C270.67 226.4 270.669 226.4 270.667 226.4C270.666 226.4 270.664 226.4 270.663 226.4C270.661 226.4 270.659 226.4 270.658 226.4C270.656 226.4 270.655 226.4 270.653 226.4C270.652 226.4 270.65 226.4 270.648 226.4C270.647 226.4 270.645 226.4 270.644 226.4C270.642 226.4 270.641 226.4 270.639 226.4C270.638 226.4 270.636 226.4 270.634 226.4C270.633 226.4 270.631 226.4 270.63 226.4C270.628 226.4 270.627 226.4 270.625 226.4C270.623 226.4 270.622 226.4 270.62 226.4C270.619 226.4 270.617 226.4 270.616 226.4C270.614 226.4 270.613 226.4 270.611 226.4C270.609 226.4 270.608 226.4 270.606 226.4C270.605 226.4 270.603 226.4 270.602 226.4C270.6 226.4 270.598 226.4 270.597 226.4C270.595 226.4 270.594 226.4 270.592 226.4C270.591 226.4 270.589 226.4 270.588 226.4C270.586 226.4 270.584 226.4 270.583 226.4C270.581 226.4 270.58 226.4 270.578 226.4C270.577 226.4 270.575 226.4 270.573 226.4C270.572 226.4 270.57 226.4 270.569 226.4C270.567 226.4 270.566 226.4 270.564 226.4C270.563 226.4 270.561 226.4 270.559 226.4C270.558 226.4 270.556 226.4 270.555 226.4C270.553 226.4 270.552 226.4 270.55 226.4C270.548 226.4 270.547 226.4 270.545 226.4C270.544 226.4 270.542 226.4 270.541 226.4C270.539 226.4 270.538 226.4 270.536 226.4C270.534 226.4 270.533 226.4 270.531 226.4C270.53 226.4 270.528 226.4 270.527 226.4C270.525 226.4 270.523 226.4 270.522 226.4C270.52 226.4 270.519 226.4 270.517 226.4C270.516 226.4 270.514 226.4 270.513 226.4C270.511 226.4 270.509 226.4 270.508 226.4C270.506 226.4 270.505 226.4 270.503 226.4C270.502 226.4 270.5 226.4 270.498 226.4C270.497 226.4 270.495 226.4 270.494 226.4C270.492 226.4 270.491 226.4 270.489 226.4C270.488 226.4 270.486 226.4 270.484 226.4C270.483 226.4 270.481 226.4 270.48 226.4C270.478 226.4 270.477 226.4 270.475 226.4C270.473 226.4 270.472 226.4 270.47 226.4C270.469 226.4 270.467 226.4 270.466 226.4C270.464 226.4 270.463 226.4 270.461 226.4C270.459 226.4 270.458 226.4 270.456 226.4C270.455 226.4 270.453 226.4 270.452 226.4C270.45 226.4 270.448 226.4 270.447 226.4C270.445 226.4 270.444 226.4 270.442 226.4C270.441 226.4 270.439 226.4 270.438 226.4C270.436 226.4 270.434 226.4 270.433 226.4C270.431 226.4 270.43 226.4 270.428 226.4C270.427 226.4 270.425 226.4 270.423 226.4C270.422 226.4 270.42 226.4 270.419 226.4C270.417 226.4 270.416 226.4 270.414 226.4C270.413 226.4 270.411 226.4 270.409 226.4C270.408 226.4 270.406 226.4 270.405 226.4C270.403 226.4 270.402 226.4 270.4 226.4C270.398 226.4 270.397 226.4 270.395 226.4C270.394 226.4 270.392 226.4 270.391 226.4C270.389 226.4 270.388 226.4 270.386 226.4C270.384 226.4 270.383 226.4 270.381 226.4C270.38 226.4 270.378 226.4 270.377 226.4C270.375 226.4 270.373 226.4 270.372 226.4C270.37 226.4 270.369 226.4 270.367 226.4C270.366 226.4 270.364 226.4 270.363 226.4C270.361 226.4 270.359 226.4 270.358 226.4C270.356 226.4 270.355 226.4 270.353 226.4C270.352 226.4 270.35 226.4 270.348 226.4C270.347 226.4 270.345 226.4 270.344 226.4C270.342 226.4 270.341 226.4 270.339 226.4C270.338 226.4 270.336 226.4 270.334 226.4C270.333 226.4 270.331 226.4 270.33 226.4C270.328 226.4 270.327 226.4 270.325 226.4C270.323 226.4 270.322 226.4 270.32 226.4C270.319 226.4 270.317 226.4 270.316 226.4C270.314 226.4 270.313 226.4 270.311 226.4C270.309 226.4 270.308 226.4 270.306 226.4C270.305 226.4 270.303 226.4 270.302 226.4C270.3 226.4 270.298 226.4 270.297 226.4C270.295 226.4 270.294 226.4 270.292 226.4C270.291 226.4 270.289 226.4 270.288 226.4C270.286 226.4 270.284 226.4 270.283 226.4C270.281 226.4 270.28 226.4 270.278 226.4C270.277 226.4 270.275 226.4 270.273 226.4C270.272 226.4 270.27 226.4 270.269 226.4C270.267 226.4 270.266 226.4 270.264 226.4C270.263 226.4 270.261 226.4 270.259 226.4C270.258 226.4 270.256 226.4 270.255 226.4C270.253 226.4 270.252 226.4 270.25 226.4C270.248 226.4 270.247 226.4 270.245 226.4C270.244 226.4 270.242 226.4 270.241 226.4C270.239 226.4 270.238 226.4 270.236 226.4C270.234 226.4 270.233 226.4 270.231 226.4C270.23 226.4 270.228 226.4 270.227 226.4C270.225 226.4 270.223 226.4 270.222 226.4C270.22 226.4 270.219 226.4 270.217 226.4C270.216 226.4 270.214 226.4 270.213 226.4C270.211 226.4 270.209 226.4 270.208 226.4C270.206 226.4 270.205 226.4 270.203 226.4C270.202 226.4 270.2 226.4 270.198 226.4C270.197 226.4 270.195 226.4 270.194 226.4C270.192 226.4 270.191 226.4 270.189 226.4C270.188 226.4 270.186 226.4 270.184 226.4C270.183 226.4 270.181 226.4 270.18 226.4C270.178 226.4 270.177 226.4 270.175 226.4C270.173 226.4 270.172 226.4 270.17 226.4C270.169 226.4 270.167 226.4 270.166 226.4C270.164 226.4 270.163 226.4 270.161 226.4C270.159 226.4 270.158 226.4 270.156 226.4C270.155 226.4 270.153 226.4 270.152 226.4C270.15 226.4 270.148 226.4 270.147 226.4C270.145 226.4 270.144 226.4 270.142 226.4C270.141 226.4 270.139 226.4 270.138 226.4C270.136 226.4 270.134 226.4 270.133 226.4C270.131 226.4 270.13 226.4 270.128 226.4C270.127 226.4 270.125 226.4 270.123 226.4C270.122 226.4 270.12 226.4 270.119 226.4C270.117 226.4 270.116 226.4 270.114 226.4C270.113 226.4 270.111 226.4 270.109 226.4C270.108 226.4 270.106 226.4 270.105 226.4C270.103 226.4 270.102 226.4 270.1 226.4C270.098 226.4 270.097 226.4 270.095 226.4C270.094 226.4 270.092 226.4 270.091 226.4C270.089 226.4 270.088 226.4 270.086 226.4C270.084 226.4 270.083 226.4 270.081 226.4C270.08 226.4 270.078 226.4 270.077 226.4C270.075 226.4 270.073 226.4 270.072 226.4C270.07 226.4 270.069 226.4 270.067 226.4C270.066 226.4 270.064 226.4 270.063 226.4C270.061 226.4 270.059 226.4 270.058 226.4C270.056 226.4 270.055 226.4 270.053 226.4C270.052 226.4 270.05 226.4 270.048 226.4C270.047 226.4 270.045 226.4 270.044 226.4C270.042 226.4 270.041 226.4 270.039 226.4C270.038 226.4 270.036 226.4 270.034 226.4C270.033 226.4 270.031 226.4 270.03 226.4C270.028 226.4 270.027 226.4 270.025 226.4C270.023 226.4 270.022 226.4 270.02 226.4C270.019 226.4 270.017 226.4 270.016 226.4C270.014 226.4 270.013 226.4 270.011 226.4C270.009 226.4 270.008 226.4 270.006 226.4C270.005 226.4 270.003 226.4 270.002 226.4C270 226.4 269.998 226.4 269.997 226.4C269.995 226.4 269.994 226.4 269.992 226.4C269.991 226.4 269.989 226.4 269.988 226.4C269.986 226.4 269.984 226.4 269.983 226.4C269.981 226.4 269.98 226.4 269.978 226.4C269.977 226.4 269.975 226.4 269.973 226.4C269.972 226.4 269.97 226.4 269.969 226.4C269.967 226.4 269.966 226.4 269.964 226.4C269.963 226.4 269.961 226.4 269.959 226.4C269.958 226.4 269.956 226.4 269.955 226.4C269.953 226.4 269.952 226.4 269.95 226.4C269.948 226.4 269.947 226.4 269.945 226.4C269.944 226.4 269.942 226.4 269.941 226.4C269.939 226.4 269.938 226.4 269.936 226.4C269.934 226.4 269.933 226.4 269.931 226.4C269.93 226.4 269.928 226.4 269.927 226.4C269.925 226.4 269.923 226.4 269.922 226.4C269.92 226.4 269.919 226.4 269.917 226.4C269.916 226.4 269.914 226.4 269.913 226.4C269.911 226.4 269.909 226.4 269.908 226.4C269.906 226.4 269.905 226.4 269.903 226.4C269.902 226.4 269.9 226.4 269.898 226.4C269.897 226.4 269.895 226.4 269.894 226.4C269.892 226.4 269.891 226.4 269.889 226.4C269.888 226.4 269.886 226.4 269.884 226.4C269.883 226.4 269.881 226.4 269.88 226.4C269.878 226.4 269.877 226.4 269.875 226.4C269.873 226.4 269.872 226.4 269.87 226.4C269.869 226.4 269.867 226.4 269.866 226.4C269.864 226.4 269.863 226.4 269.861 226.4C269.859 226.4 269.858 226.4 269.856 226.4C269.855 226.4 269.853 226.4 269.852 226.4C269.85 226.4 269.848 226.4 269.847 226.4C269.845 226.4 269.844 226.4 269.842 226.4C269.841 226.4 269.839 226.4 269.838 226.4C269.836 226.4 269.834 226.4 269.833 226.4C269.831 226.4 269.83 226.4 269.828 226.4C269.827 226.4 269.825 226.4 269.823 226.4C269.822 226.4 269.82 226.4 269.819 226.4C269.817 226.4 269.816 226.4 269.814 226.4C269.813 226.4 269.811 226.4 269.809 226.4C269.808 226.4 269.806 226.4 269.805 226.4C269.803 226.4 269.802 226.4 269.8 226.4C269.798 226.4 269.797 226.4 269.795 226.4C269.794 226.4 269.792 226.4 269.791 226.4C269.789 226.4 269.788 226.4 269.786 226.4C269.784 226.4 269.783 226.4 269.781 226.4C269.78 226.4 269.778 226.4 269.777 226.4C269.775 226.4 269.773 226.4 269.772 226.4C269.77 226.4 269.769 226.4 269.767 226.4C269.766 226.4 269.764 226.4 269.763 226.4C269.761 226.4 269.759 226.4 269.758 226.4C269.756 226.4 269.755 226.4 269.753 226.4C269.752 226.4 269.75 226.4 269.748 226.4C269.747 226.4 269.745 226.4 269.744 226.4C269.742 226.4 269.741 226.4 269.739 226.4C269.738 226.4 269.736 226.4 269.734 226.4C269.733 226.4 269.731 226.4 269.73 226.4C269.728 226.4 269.727 226.4 269.725 226.4C269.723 226.4 269.722 226.4 269.72 226.4C269.719 226.4 269.717 226.4 269.716 226.4C269.714 226.4 269.713 226.4 269.711 226.4C269.709 226.4 269.708 226.4 269.706 226.4C269.705 226.4 269.703 226.4 269.702 226.4C269.7 226.4 269.698 226.4 269.697 226.4C269.695 226.4 269.694 226.4 269.692 226.4C269.691 226.4 269.689 226.4 269.688 226.4C269.686 226.4 269.684 226.4 269.683 226.4C269.681 226.4 269.68 226.4 269.678 226.4C269.677 226.4 269.675 226.4 269.673 226.4C269.672 226.4 269.67 226.4 269.669 226.4C269.667 226.4 269.666 226.4 269.664 226.4C269.663 226.4 269.661 226.4 269.659 226.4C269.658 226.4 269.656 226.4 269.655 226.4C269.653 226.4 269.652 226.4 269.65 226.4C269.648 226.4 269.647 226.4 269.645 226.4C269.644 226.4 269.642 226.4 269.641 226.4C269.639 226.4 269.638 226.4 269.636 226.4C269.634 226.4 269.633 226.4 269.631 226.4C269.63 226.4 269.628 226.4 269.627 226.4C269.625 226.4 269.623 226.4 269.622 226.4C269.62 226.4 269.619 226.4 269.617 226.4C269.616 226.4 269.614 226.4 269.613 226.4C269.611 226.4 269.609 226.4 269.608 226.4C269.606 226.4 269.605 226.4 269.603 226.4C269.602 226.4 269.6 226.4 269.598 226.4C269.597 226.4 269.595 226.4 269.594 226.4C269.592 226.4 269.591 226.4 269.589 226.4C269.588 226.4 269.586 226.4 269.584 226.4C269.583 226.4 269.581 226.4 269.58 226.4C269.578 226.4 269.577 226.4 269.575 226.4C269.573 226.4 269.572 226.4 269.57 226.4C269.569 226.4 269.567 226.4 269.566 226.4C269.564 226.4 269.563 226.4 269.561 226.4C269.559 226.4 269.558 226.4 269.556 226.4C269.555 226.4 269.553 226.4 269.552 226.4C269.55 226.4 269.548 226.4 269.547 226.4C269.545 226.4 269.544 226.4 269.542 226.4C269.541 226.4 269.539 226.4 269.538 226.4C269.536 226.4 269.534 226.4 269.533 226.4C269.531 226.4 269.53 226.4 269.528 226.4C269.527 226.4 269.525 226.4 269.523 226.4C269.522 226.4 269.52 226.4 269.519 226.4C269.517 226.4 269.516 226.4 269.514 226.4C269.513 226.4 269.511 226.4 269.509 226.4C269.508 226.4 269.506 226.4 269.505 226.4C269.503 226.4 269.502 226.4 269.5 226.4C269.498 226.4 269.497 226.4 269.495 226.4C269.494 226.4 269.492 226.4 269.491 226.4C269.489 226.4 269.488 226.4 269.486 226.4C269.484 226.4 269.483 226.4 269.481 226.4C269.48 226.4 269.478 226.4 269.477 226.4C269.475 226.4 269.473 226.4 269.472 226.4C269.47 226.4 269.469 226.4 269.467 226.4C269.466 226.4 269.464 226.4 269.463 226.4C269.461 226.4 269.459 226.4 269.458 226.4C269.456 226.4 269.455 226.4 269.453 226.4C269.452 226.4 269.45 226.4 269.448 226.4C269.447 226.4 269.445 226.4 269.444 226.4C269.442 226.4 269.441 226.4 269.439 226.4C269.438 226.4 269.436 226.4 269.434 226.4C269.433 226.4 269.431 226.4 269.43 226.4C269.428 226.4 269.427 226.4 269.425 226.4C269.423 226.4 269.422 226.4 269.42 226.4C269.419 226.4 269.417 226.4 269.416 226.4C269.414 226.4 269.413 226.4 269.411 226.4C269.409 226.4 269.408 226.4 269.406 226.4C269.405 226.4 269.403 226.4 269.402 226.4C269.4 226.4 269.398 226.4 269.397 226.4C269.395 226.4 269.394 226.4 269.392 226.4C269.391 226.4 269.389 226.4 269.388 226.4C269.386 226.4 269.384 226.4 269.383 226.4C269.381 226.4 269.38 226.4 269.378 226.4C269.377 226.4 269.375 226.4 269.373 226.4C269.372 226.4 269.37 226.4 269.369 226.4C269.367 226.4 269.366 226.4 269.364 226.4C269.363 226.4 269.361 226.4 269.359 226.4C269.358 226.4 269.356 226.4 269.355 226.4C269.353 226.4 269.352 226.4 269.35 226.4C269.348 226.4 269.347 226.4 269.345 226.4C269.344 226.4 269.342 226.4 269.341 226.4C269.339 226.4 269.338 226.4 269.336 226.4C269.334 226.4 269.333 226.4 269.331 226.4C269.33 226.4 269.328 226.4 269.327 226.4C269.325 226.4 269.323 226.4 269.322 226.4C269.32 226.4 269.319 226.4 269.317 226.4C269.316 226.4 269.314 226.4 269.313 226.4C269.311 226.4 269.309 226.4 269.308 226.4C269.306 226.4 269.305 226.4 269.303 226.4C269.302 226.4 269.3 226.4 269.298 226.4C269.297 226.4 269.295 226.4 269.294 226.4C269.292 226.4 269.291 226.4 269.289 226.4C269.288 226.4 269.286 226.4 269.284 226.4C269.283 226.4 269.281 226.4 269.28 226.4C269.278 226.4 269.277 226.4 269.275 226.4C269.273 226.4 269.272 226.4 269.27 226.4C269.269 226.4 269.267 226.4 269.266 226.4C269.264 226.4 269.263 226.4 269.261 226.4C269.259 226.4 269.258 226.4 269.256 226.4C269.255 226.4 269.253 226.4 269.252 226.4C269.25 226.4 269.248 226.4 269.247 226.4C269.245 226.4 269.244 226.4 269.242 226.4C269.241 226.4 269.239 226.4 269.238 226.4C269.236 226.4 269.234 226.4 269.233 226.4C269.231 226.4 269.23 226.4 269.228 226.4C269.227 226.4 269.225 226.4 269.223 226.4C269.222 226.4 269.22 226.4 269.219 226.4C269.217 226.4 269.216 226.4 269.214 226.4C269.213 226.4 269.211 226.4 269.209 226.4C269.208 226.4 269.206 226.4 269.205 226.4C269.203 226.4 269.202 226.4 269.2 226.4C269.198 226.4 269.197 226.4 269.195 226.4C269.194 226.4 269.192 226.4 269.191 226.4C269.189 226.4 269.188 226.4 269.186 226.4C269.184 226.4 269.183 226.4 269.181 226.4C269.18 226.4 269.178 226.4 269.177 226.4C269.175 226.4 269.173 226.4 269.172 226.4C269.17 226.4 269.169 226.4 269.167 226.4C269.166 226.4 269.164 226.4 269.163 226.4C269.161 226.4 269.159 226.4 269.158 226.4C269.156 226.4 269.155 226.4 269.153 226.4C269.152 226.4 269.15 226.4 269.148 226.4C269.147 226.4 269.145 226.4 269.144 226.4C269.142 226.4 269.141 226.4 269.139 226.4C269.138 226.4 269.136 226.4 269.134 226.4C269.133 226.4 269.131 226.4 269.13 226.4C269.128 226.4 269.127 226.4 269.125 226.4C269.123 226.4 269.122 226.4 269.12 226.4C269.119 226.4 269.117 226.4 269.116 226.4C269.114 226.4 269.113 226.4 269.111 226.4C269.109 226.4 269.108 226.4 269.106 226.4C269.105 226.4 269.103 226.4 269.102 226.4C269.1 226.4 269.098 226.4 269.097 226.4C269.095 226.4 269.094 226.4 269.092 226.4C269.091 226.4 269.089 226.4 269.088 226.4C269.086 226.4 269.084 226.4 269.083 226.4C269.081 226.4 269.08 226.4 269.078 226.4C269.077 226.4 269.075 226.4 269.073 226.4C269.072 226.4 269.07 226.4 269.069 226.4C269.067 226.4 269.066 226.4 269.064 226.4C269.063 226.4 269.061 226.4 269.059 226.4C269.058 226.4 269.056 226.4 269.055 226.4C269.053 226.4 269.052 226.4 269.05 226.4C269.048 226.4 269.047 226.4 269.045 226.4C269.044 226.4 269.042 226.4 269.041 226.4C269.039 226.4 269.038 226.4 269.036 226.4C269.034 226.4 269.033 226.4 269.031 226.4C269.03 226.4 269.028 226.4 269.027 226.4C269.025 226.4 269.023 226.4 269.022 226.4C269.02 226.4 269.019 226.4 269.017 226.4C269.016 226.4 269.014 226.4 269.013 226.4C269.011 226.4 269.009 226.4 269.008 226.4C269.006 226.4 269.005 226.4 269.003 226.4C269.002 226.4 269 226.4 268.998 226.4C268.997 226.4 268.995 226.4 268.994 226.4C268.992 226.4 268.991 226.4 268.989 226.4C268.988 226.4 268.986 226.4 268.984 226.4C268.983 226.4 268.981 226.4 268.98 226.4C268.978 226.4 268.977 226.4 268.975 226.4C268.973 226.4 268.972 226.4 268.97 226.4C268.969 226.4 268.967 226.4 268.966 226.4C268.964 226.4 268.963 226.4 268.961 226.4C268.959 226.4 268.958 226.4 268.956 226.4C268.955 226.4 268.953 226.4 268.952 226.4C268.95 226.4 268.948 226.4 268.947 226.4C268.945 226.4 268.944 226.4 268.942 226.4C268.941 226.4 268.939 226.4 268.938 226.4C268.936 226.4 268.934 226.4 268.933 226.4C268.931 226.4 268.93 226.4 268.928 226.4C268.927 226.4 268.925 226.4 268.923 226.4C268.922 226.4 268.92 226.4 268.919 226.4C268.917 226.4 268.916 226.4 268.914 226.4C268.913 226.4 268.911 226.4 268.909 226.4C268.908 226.4 268.906 226.4 268.905 226.4C268.903 226.4 268.902 226.4 268.9 226.4C268.898 226.4 268.897 226.4 268.895 226.4C268.894 226.4 268.892 226.4 268.891 226.4C268.889 226.4 268.888 226.4 268.886 226.4C268.884 226.4 268.883 226.4 268.881 226.4C268.88 226.4 268.878 226.4 268.877 226.4C268.875 226.4 268.873 226.4 268.872 226.4C268.87 226.4 268.869 226.4 268.867 226.4C268.866 226.4 268.864 226.4 268.863 226.4C268.861 226.4 268.859 226.4 268.858 226.4C268.856 226.4 268.855 226.4 268.853 226.4C268.852 226.4 268.85 226.4 268.848 226.4C268.847 226.4 268.845 226.4 268.844 226.4C268.842 226.4 268.841 226.4 268.839 226.4C268.838 226.4 268.836 226.4 268.834 226.4C268.833 226.4 268.831 226.4 268.83 226.4C268.828 226.4 268.827 226.4 268.825 226.4C268.823 226.4 268.822 226.4 268.82 226.4C268.819 226.4 268.817 226.4 268.816 226.4C268.814 226.4 268.813 226.4 268.811 226.4C268.809 226.4 268.808 226.4 268.806 226.4C268.805 226.4 268.803 226.4 268.802 226.4C268.8 226.4 268.798 226.4 268.797 226.4C268.795 226.4 268.794 226.4 268.792 226.4C268.791 226.4 268.789 226.4 268.788 226.4C268.786 226.4 268.784 226.4 268.783 226.4C268.781 226.4 268.78 226.4 268.778 226.4C268.777 226.4 268.775 226.4 268.773 226.4C268.772 226.4 268.77 226.4 268.769 226.4C268.767 226.4 268.766 226.4 268.764 226.4C268.763 226.4 268.761 226.4 268.759 226.4C268.758 226.4 268.756 226.4 268.755 226.4C268.753 226.4 268.752 226.4 268.75 226.4C268.748 226.4 268.747 226.4 268.745 226.4C268.744 226.4 268.742 226.4 268.741 226.4C268.739 226.4 268.738 226.4 268.736 226.4C268.734 226.4 268.733 226.4 268.731 226.4C268.73 226.4 268.728 226.4 268.727 226.4C268.725 226.4 268.723 226.4 268.722 226.4C268.72 226.4 268.719 226.4 268.717 226.4C268.716 226.4 268.714 226.4 268.713 226.4C268.711 226.4 268.709 226.4 268.708 226.4C268.706 226.4 268.705 226.4 268.703 226.4C268.702 226.4 268.7 226.4 268.698 226.4C268.697 226.4 268.695 226.4 268.694 226.4C268.692 226.4 268.691 226.4 268.689 226.4C268.688 226.4 268.686 226.4 268.684 226.4C268.683 226.4 268.681 226.4 268.68 226.4C268.678 226.4 268.677 226.4 268.675 226.4C268.673 226.4 268.672 226.4 268.67 226.4C268.669 226.4 268.667 226.4 268.666 226.4C268.664 226.4 268.663 226.4 268.661 226.4C268.659 226.4 268.658 226.4 268.656 226.4C268.655 226.4 268.653 226.4 268.652 226.4C268.65 226.4 268.648 226.4 268.647 226.4C268.645 226.4 268.644 226.4 268.642 226.4C268.641 226.4 268.639 226.4 268.638 226.4C268.636 226.4 268.634 226.4 268.633 226.4V228.4ZM270.033 227.4V229.4H272.033V227.4H270.033ZM270.891 228.41C267.214 228.935 263.063 229.2 258.433 229.2V231.2C263.136 231.2 267.385 230.931 271.174 230.39L270.891 228.41ZM258.433 229.2C254.033 229.2 248.469 228.227 241.715 226.241L241.151 228.159C247.997 230.173 253.766 231.2 258.433 231.2V229.2ZM241.72 226.242C235.229 224.295 229.303 220.656 223.94 215.293L222.526 216.707C228.096 222.278 234.303 226.105 241.145 228.158L241.72 226.242ZM223.94 215.293C212.916 204.269 206.199 189.948 203.824 172.267L201.842 172.533C204.267 190.586 211.15 205.331 222.526 216.707L223.94 215.293ZM203.824 172.264L191.624 83.2642L189.642 83.5358L201.842 172.536L203.824 172.264ZM189.718 82.9953L148.118 176.995L149.947 177.805L191.547 83.8047L189.718 82.9953ZM148.124 176.983C144.372 185.156 142.063 192.055 141.243 197.655L143.222 197.945C144.003 192.612 146.227 185.91 149.942 177.817L148.124 176.983ZM142.233 196.8H140.233V198.8H142.233V196.8ZM141.141 197.382L89.3413 84.7821L87.5243 85.6179L139.324 198.218L141.141 197.382ZM87.4367 85.1118L78.6367 184.512L80.6289 184.688L89.4289 85.2882L87.4367 85.1118ZM78.6397 184.483C78.3376 187.051 79.1075 189.339 80.898 191.278L82.3676 189.922C80.9581 188.395 80.3947 186.682 80.626 184.717L78.6397 184.483ZM80.9257 191.307C82.8016 193.183 84.9101 194.2 87.2328 194.2V192.2C85.5555 192.2 83.9307 191.484 82.3399 189.893L80.9257 191.307ZM87.2328 194.2H90.4328V192.2H87.2328V194.2ZM89.4328 193.2V195H91.4328V193.2H89.4328ZM90.4328 194H51.6328V196H90.4328V194ZM52.6328 195V193H50.6328V195H52.6328ZM51.6328 194H54.8328V192H51.6328V194ZM54.8328 194C58.6466 194 62.0035 192.864 64.8575 190.581L63.6081 189.019C61.1288 191.003 58.219 192 54.8328 192V194ZM64.862 190.577C67.8504 188.158 69.7068 185.012 70.4161 181.182L68.4495 180.818C67.8255 184.188 66.2152 186.909 63.6036 189.023L64.862 190.577ZM70.4262 181.115L83.0262 71.9146L81.0394 71.6854L68.4394 180.885L70.4262 181.115ZM82.9241 71.3466C71.1276 48.1556 56.7984 36.2 39.8328 36.2V38.2C55.6672 38.2 69.4714 49.311 81.1415 72.2534L82.9241 71.3466ZM39.8328 36.2C38.336 36.2 36.7748 36.268 35.1498 36.4034L35.3159 38.3965C36.8908 38.2653 38.3963 38.2 39.8328 38.2V36.2ZM36.2328 37.4V35.4H34.2328V37.4H36.2328ZM35.4838 36.368C39.0469 35.4442 41.8873 35 44.0328 35V33C41.6449 33 38.6187 33.4891 34.9818 34.432L35.4838 36.368ZM44.0328 35C46.2609 35 48.6939 35.1311 51.3333 35.395L51.5323 33.405C48.8384 33.1356 46.338 33 44.0328 33V35ZM51.3829 35.3987C53.9454 35.5269 56.9967 36.1063 60.5487 37.1588L61.1169 35.2412C57.4689 34.1603 54.2536 33.5398 51.4827 33.4012L51.3829 35.3987ZM60.5487 37.1588C64.0504 38.1963 67.3594 39.7529 70.4781 41.832L71.5875 40.1679C68.3062 37.9804 64.8153 36.337 61.1169 35.2412L60.5487 37.1588ZM70.5028 41.848C73.6545 43.8178 76.4005 45.9116 78.7462 48.127L80.1194 46.673C77.6651 44.355 74.8111 42.1822 71.5628 40.152L70.5028 41.848ZM78.7685 48.1474C81.1236 50.2409 83.3517 52.5994 85.4519 55.2247L87.0137 53.9753C84.8473 51.2673 82.542 48.8257 80.0972 46.6526L78.7685 48.1474ZM85.4328 55.2C89.0027 59.9598 91.8331 64.5051 93.933 68.8363L95.7326 67.9637C93.5659 63.4948 90.663 58.8402 87.0328 54L85.4328 55.2ZM93.9249 68.8192L142.125 173.219L143.941 172.381L95.7407 67.9808L93.9249 68.8192ZM143.946 173.207L197.746 52.6074L195.92 51.7926L142.12 172.393L143.946 173.207ZM196.833 53.2H198.633V51.2H196.833V53.2ZM197.645 52.3552L216.245 170.755L218.221 170.445L199.621 52.0448L197.645 52.3552ZM216.244 170.748C219.062 189.537 225.119 203.892 234.511 213.692L235.955 212.308C226.946 202.908 221.003 188.997 218.222 170.452L216.244 170.748ZM234.516 213.697C244.03 223.483 255.419 228.4 268.633 228.4V226.4C255.98 226.4 245.102 221.717 235.95 212.303L234.516 213.697Z" fill="white"/>
<circle cx="23.5" cy="67.5" r="8.5" fill="white"/>
</svg>
