<svg width="2366" height="717" viewBox="0 0 2366 717" fill="none" xmlns="http://www.w3.org/2000/svg">
<g clip-path="url(#clip0_9_17)">
<path d="M198.279 313.502V506.35C198.279 560.415 188.884 601.62 170.095 629.971C151.635 658.322 121.308 672.497 79.1139 672.497C51.7536 672.497 31.8105 667.057 19.284 656.179C6.42801 645.3 0 632.609 0 618.103C0 603.598 4.28533 592.39 12.856 584.479C21.4267 576.896 32.14 573.105 44.996 573.105C57.852 573.105 67.5764 576.567 74.1693 583.49C80.4324 590.741 83.564 598.653 83.564 607.225C83.564 615.797 82.5751 624.037 80.5973 631.949H61.8077C56.5336 640.85 55.8742 648.432 59.8299 654.695C63.456 660.958 70.2136 664.09 80.1028 664.09C90.3216 664.09 97.2441 658.322 100.87 646.783C104.496 635.576 106.309 612.17 106.309 576.567V322.403H74.1693V313.502H198.279ZM151.305 279.383C133.834 279.383 121.308 274.932 113.726 266.032C106.474 257.131 102.848 246.087 102.848 232.901C102.848 219.715 106.804 208.837 114.715 200.265C122.956 191.694 135.318 187.409 151.8 187.409C168.282 187.409 180.808 191.365 189.379 199.277C197.95 206.859 202.235 217.902 202.235 232.407C202.235 246.582 198.114 257.954 189.873 266.526C181.632 275.098 168.776 279.383 151.305 279.383ZM498.687 202.738H630.708V212.133H603.513V539.481H630.708V548.876H479.897V539.481H507.093V230.429H505.115L430.946 548.876H369.138L282.113 228.945H280.135V539.481H307.33V548.876H240.084V539.481H267.279V212.133H240.084V202.738H373.588L439.352 457.397L498.687 202.738Z" fill="white"/>
<path d="M826.493 385.449C809.516 385.449 796.084 380.67 786.194 371.109C776.471 361.548 771.608 347.869 771.608 330.067V316.716H792.128V330.067C792.128 340.78 794.929 349.518 800.534 356.275C806.302 363.032 814.873 366.412 826.246 366.412C837.784 366.412 845.943 363.116 850.722 356.522C855.501 349.765 857.891 340.946 857.891 330.067V227.709H827.482V208.919H897.448V227.709H878.659V330.067C878.659 348.034 874.208 361.796 865.308 371.357C856.408 380.752 843.47 385.449 826.493 385.449ZM968.497 384.213C959.763 384.213 951.686 382.317 944.269 378.527C937.017 374.736 931.25 369.131 926.963 361.714C922.844 354.131 920.782 344.983 920.782 334.27V261.087H940.313V332.787C940.313 344.82 943.28 353.555 949.213 358.994C955.313 364.434 963.471 367.153 973.689 367.153C985.228 367.153 994.704 363.363 1002.12 355.78C1009.54 348.197 1013.25 336.908 1013.25 321.908V261.087H1032.78V381.988H1013.74V361.467H1010.28C1007.64 367.235 1003.11 372.511 996.682 377.29C990.254 381.906 980.859 384.213 968.497 384.213ZM1122.35 385.449C1107.35 385.449 1094.66 381.988 1084.28 375.065C1074.06 368.142 1067.88 357.182 1065.74 342.182L1084.28 337.979C1085.6 345.891 1088.07 352.153 1091.7 356.769C1095.32 361.22 1099.77 364.434 1105.05 366.412C1110.48 368.224 1116.25 369.131 1122.35 369.131C1131.42 369.131 1138.58 367.319 1143.86 363.692C1149.13 360.065 1151.77 355.204 1151.77 349.105C1151.77 342.842 1149.22 338.473 1144.11 336.001C1139.16 333.363 1132.32 331.222 1123.59 329.573L1113.45 327.842C1105.7 326.524 1098.62 324.462 1092.19 321.661C1085.76 318.86 1080.65 315.067 1076.86 310.288C1073.07 305.509 1071.17 299.491 1071.17 292.239C1071.17 281.361 1075.38 272.873 1083.78 266.773C1092.19 260.674 1103.31 257.625 1117.16 257.625C1130.84 257.625 1141.88 260.758 1150.29 267.021C1158.86 273.12 1164.38 281.774 1166.85 292.981L1148.56 297.679C1147.07 288.944 1143.53 282.844 1137.93 279.383C1132.32 275.756 1125.4 273.943 1117.16 273.943C1108.92 273.943 1102.41 275.508 1097.63 278.641C1092.85 281.608 1090.46 286.058 1090.46 291.992C1090.46 297.76 1092.68 302.047 1097.13 304.849C1101.75 307.487 1107.85 309.465 1115.43 310.782L1125.57 312.513C1134.13 313.997 1141.8 316.056 1148.56 318.694C1155.48 321.167 1160.92 324.794 1164.88 329.573C1168.99 334.352 1171.06 340.617 1171.06 348.363C1171.06 360.231 1166.61 369.379 1157.71 375.807C1148.97 382.235 1137.19 385.449 1122.35 385.449ZM1245.87 381.988C1238.95 381.988 1233.59 380.092 1229.8 376.301C1226.17 372.511 1224.36 367.319 1224.36 360.725V278.147H1188.02V261.087H1224.36V218.067H1243.89V261.087H1283.45V278.147H1243.89V357.758C1243.89 362.703 1246.28 365.175 1251.06 365.175H1278.01V381.988H1245.87ZM1315.08 381.988V261.087H1334.61V381.988H1315.08ZM1324.97 242.297C1320.69 242.297 1317.06 240.895 1314.09 238.093C1311.29 235.291 1309.89 231.747 1309.89 227.462C1309.89 223.012 1311.29 219.385 1314.09 216.583C1317.06 213.781 1320.69 212.38 1324.97 212.38C1329.26 212.38 1332.8 213.781 1335.6 216.583C1338.4 219.385 1339.81 223.012 1339.81 227.462C1339.81 231.747 1338.4 235.291 1335.6 238.093C1332.8 240.895 1329.26 242.297 1324.97 242.297ZM1431.31 385.449C1419.61 385.449 1409.06 382.977 1399.67 378.032C1390.43 372.922 1383.1 365.67 1377.66 356.275C1372.39 346.88 1369.75 335.754 1369.75 322.897V320.178C1369.75 307.155 1372.39 296.03 1377.66 286.8C1383.1 277.405 1390.43 270.235 1399.67 265.29C1409.06 260.18 1419.61 257.625 1431.31 257.625C1442.85 257.625 1452.65 259.769 1460.73 264.054C1468.97 268.338 1475.4 274.025 1480.02 281.113C1484.79 288.202 1487.84 295.782 1489.16 303.86L1470.13 307.815C1469.3 301.882 1467.32 296.442 1464.19 291.498C1461.23 286.553 1457.02 282.597 1451.58 279.63C1446.15 276.663 1439.47 275.18 1431.56 275.18C1423.48 275.18 1416.23 276.992 1409.8 280.619C1403.54 284.246 1398.51 289.438 1394.72 296.195C1391.09 302.952 1389.28 311.03 1389.28 320.425V322.65C1389.28 332.045 1391.09 340.123 1394.72 346.88C1398.51 353.637 1403.54 358.829 1409.8 362.456C1416.23 366.083 1423.48 367.895 1431.56 367.895C1443.59 367.895 1452.74 364.763 1459 358.5C1465.43 352.237 1469.38 344.489 1470.87 335.259L1490.15 339.462C1488.34 347.374 1485.04 354.873 1480.26 361.961C1475.48 369.05 1468.97 374.736 1460.73 379.021C1452.65 383.306 1442.85 385.449 1431.31 385.449ZM1578.82 385.449C1566.63 385.449 1555.91 382.895 1546.68 377.785C1537.45 372.511 1530.28 365.175 1525.17 355.78C1520.06 346.385 1517.51 335.507 1517.51 323.144V320.178C1517.51 307.65 1520.06 296.69 1525.17 287.294C1530.28 277.899 1537.37 270.648 1546.43 265.537C1555.5 260.264 1565.88 257.625 1577.59 257.625C1588.96 257.625 1599.01 260.098 1607.75 265.043C1616.48 269.822 1623.32 276.745 1628.27 285.811C1633.21 294.877 1635.68 305.509 1635.68 317.705V326.606H1537.04C1537.53 339.628 1541.74 349.847 1549.65 357.264C1557.56 364.515 1567.45 368.142 1579.32 368.142C1589.7 368.142 1597.7 365.752 1603.3 360.972C1608.9 356.193 1613.19 350.507 1616.15 343.913L1632.97 352.072C1630.49 357.182 1627.03 362.29 1622.58 367.401C1618.3 372.511 1612.61 376.796 1605.52 380.257C1598.6 383.719 1589.7 385.449 1578.82 385.449ZM1537.29 310.535H1615.91C1615.25 299.328 1611.37 290.59 1604.29 284.328C1597.36 278.065 1588.46 274.932 1577.59 274.932C1566.54 274.932 1557.48 278.065 1550.39 284.328C1543.3 290.59 1538.94 299.328 1537.29 310.535ZM1669.01 381.988V208.919H1708.57L1754.55 368.884H1757.77L1803.75 208.919H1843.31V381.988H1823.28V222.517H1819.82L1774.08 381.988H1738.24L1692.5 222.517H1689.04V381.988H1669.01ZM1883.66 381.988V261.087H1903.2V381.988H1883.66ZM1893.55 242.297C1889.27 242.297 1885.64 240.895 1882.68 238.093C1879.87 235.291 1878.47 231.747 1878.47 227.462C1878.47 223.012 1879.87 219.385 1882.68 216.583C1885.64 213.781 1889.27 212.38 1893.55 212.38C1897.84 212.38 1901.38 213.781 1904.18 216.583C1906.99 219.385 1908.39 223.012 1908.39 227.462C1908.39 231.747 1906.99 235.291 1904.18 238.093C1901.38 240.895 1897.84 242.297 1893.55 242.297ZM1944.27 381.988V261.087H1963.3V281.608H1966.76C1969.4 275.84 1973.85 270.648 1980.11 266.032C1986.54 261.253 1995.94 258.862 2008.3 258.862C2017.36 258.862 2025.44 260.758 2032.53 264.548C2039.78 268.338 2045.55 273.943 2049.83 281.361C2054.12 288.778 2056.26 297.926 2056.26 308.804V381.988H2036.73V310.288C2036.73 298.255 2033.68 289.52 2027.58 284.08C2021.65 278.641 2013.57 275.921 2003.35 275.921C1991.65 275.921 1982.09 279.712 1974.68 287.294C1967.42 294.877 1963.8 306.166 1963.8 321.167V381.988H1944.27ZM2147.06 385.449C2136.68 385.449 2127.12 382.977 2118.39 378.032C2109.65 373.087 2102.73 365.917 2097.62 356.522C2092.51 347.127 2089.95 336.001 2089.95 323.144V319.93C2089.95 307.074 2092.51 296.03 2097.62 286.8C2102.73 277.405 2109.57 270.235 2118.14 265.29C2126.88 260.18 2136.52 257.625 2147.06 257.625C2155.47 257.625 2162.56 258.78 2168.33 261.087C2174.26 263.23 2179.04 266.032 2182.67 269.493C2186.29 272.789 2189.09 276.334 2191.07 280.124H2194.53V208.919H2214.06V381.988H2195.03V361.961H2191.57C2188.27 368.061 2183.16 373.5 2176.24 378.279C2169.32 383.058 2159.59 385.449 2147.06 385.449ZM2152.26 368.142C2164.78 368.142 2174.92 364.187 2182.67 356.275C2190.58 348.197 2194.53 336.99 2194.53 322.65V320.425C2194.53 306.085 2190.58 294.959 2182.67 287.047C2174.92 278.97 2164.78 274.932 2152.26 274.932C2139.89 274.932 2129.68 278.97 2121.6 287.047C2113.69 294.959 2109.73 306.085 2109.73 320.425V322.65C2109.73 336.99 2113.69 348.197 2121.6 356.275C2129.68 364.187 2139.89 368.142 2152.26 368.142ZM2303.7 385.449C2288.7 385.449 2276.01 381.988 2265.63 375.065C2255.41 368.142 2249.23 357.182 2247.08 342.182L2265.63 337.979C2266.94 345.891 2269.42 352.153 2273.04 356.769C2276.67 361.22 2281.12 364.434 2286.39 366.412C2291.83 368.224 2297.6 369.131 2303.7 369.131C2312.76 369.131 2319.93 367.319 2325.21 363.692C2330.48 360.065 2333.12 355.204 2333.12 349.105C2333.12 342.842 2330.56 338.473 2325.46 336.001C2320.51 333.363 2313.67 331.222 2304.94 329.573L2294.8 327.842C2287.05 326.524 2279.97 324.462 2273.54 321.661C2267.11 318.86 2262 315.067 2258.21 310.288C2254.42 305.509 2252.52 299.491 2252.52 292.239C2252.52 281.361 2256.73 272.873 2265.13 266.773C2273.54 260.674 2284.66 257.625 2298.51 257.625C2312.19 257.625 2323.23 260.758 2331.64 267.021C2340.21 273.12 2345.73 281.774 2348.2 292.981L2329.91 297.679C2328.42 288.944 2324.88 282.844 2319.28 279.383C2313.67 275.756 2306.75 273.943 2298.51 273.943C2290.27 273.943 2283.76 275.508 2278.98 278.641C2274.2 281.608 2271.81 286.058 2271.81 291.992C2271.81 297.76 2274.03 302.047 2278.48 304.849C2283.1 307.487 2289.2 309.465 2296.78 310.782L2306.91 312.513C2315.48 313.997 2323.15 316.056 2329.91 318.694C2336.83 321.167 2342.27 324.794 2346.22 329.573C2350.34 334.352 2352.4 340.617 2352.4 348.363C2352.4 360.231 2347.95 369.379 2339.05 375.807C2330.32 382.235 2318.53 385.449 2303.7 385.449Z" fill="white"/>
<path d="M766.119 550.112V542.695H775.811V488.302H766.119V480.885H793.117C802.215 480.885 809.236 483.191 814.181 487.807C819.192 492.423 821.697 499.509 821.697 509.07V521.927C821.697 531.552 819.192 538.672 814.181 543.288C809.236 547.838 802.215 550.112 793.117 550.112H766.119ZM784.118 542.596H793.117C799.841 542.596 804.917 540.947 808.346 537.651C811.775 534.355 813.489 529.245 813.489 522.322V508.773C813.489 501.72 811.775 496.577 808.346 493.345C804.917 490.114 799.841 488.5 793.117 488.5H784.118V542.596ZM850.086 551.497C846.724 551.497 843.658 550.903 840.889 549.717C838.12 548.53 835.945 546.816 834.362 544.574C832.78 542.331 831.989 539.597 831.989 536.365C831.989 533.07 832.78 530.365 834.362 528.256C835.945 526.08 838.12 524.466 840.889 523.41C843.658 522.29 846.758 521.729 850.185 521.729H866.502V518.169C866.502 514.739 865.481 512.037 863.437 510.059C861.459 508.081 858.492 507.092 854.536 507.092C850.647 507.092 847.614 508.049 845.438 509.96C843.263 511.807 841.779 514.312 840.988 517.476L833.67 515.103C834.461 512.4 835.715 509.96 837.428 507.784C839.144 505.542 841.418 503.762 844.252 502.444C847.154 501.059 850.615 500.367 854.635 500.367C860.833 500.367 865.647 501.982 869.074 505.213C872.503 508.378 874.216 512.86 874.216 518.663V540.519C874.216 542.497 875.141 543.486 876.985 543.486H881.435V550.112H874.611C872.436 550.112 870.69 549.519 869.37 548.332C868.052 547.078 867.392 545.432 867.392 543.387V542.893H866.206C865.481 544.146 864.492 545.464 863.239 546.849C862.052 548.166 860.406 549.254 858.294 550.112C856.185 551.034 853.448 551.497 850.086 551.497ZM850.976 544.772C855.592 544.772 859.318 543.419 862.151 540.717C865.054 537.948 866.502 534.091 866.502 529.146V528.058H850.482C847.384 528.058 844.813 528.75 842.768 530.135C840.79 531.453 839.801 533.465 839.801 536.168C839.801 538.87 840.825 540.981 842.867 542.497C844.978 544.013 847.681 544.772 850.976 544.772ZM906.749 550.112C903.98 550.112 901.839 549.353 900.321 547.837C898.872 546.322 898.145 544.245 898.145 541.607V508.576H883.608V501.752H898.145V484.544H905.958V501.752H921.781V508.576H905.958V540.42C905.958 542.398 906.915 543.387 908.826 543.387H919.605V550.112H906.749ZM948.978 551.497C945.616 551.497 942.55 550.903 939.782 549.717C937.013 548.53 934.837 546.816 933.255 544.574C931.672 542.331 930.881 539.597 930.881 536.365C930.881 533.07 931.672 530.365 933.255 528.256C934.837 526.08 937.013 524.466 939.782 523.41C942.55 522.29 945.651 521.729 949.077 521.729H965.395V518.169C965.395 514.739 964.374 512.037 962.329 510.059C960.351 508.081 957.384 507.092 953.429 507.092C949.54 507.092 946.506 508.049 944.331 509.96C942.155 511.807 940.672 514.312 939.88 517.476L932.562 515.103C933.354 512.4 934.607 509.96 936.32 507.784C938.036 505.542 940.311 503.762 943.144 502.444C946.046 501.059 949.508 500.367 953.528 500.367C959.726 500.367 964.539 501.982 967.966 505.213C971.395 508.378 973.108 512.86 973.108 518.663V540.519C973.108 542.497 974.033 543.486 975.877 543.486H980.327V550.112H973.504C971.328 550.112 969.583 549.519 968.263 548.332C966.945 547.078 966.285 545.432 966.285 543.387V542.893H965.098C964.374 544.146 963.385 545.464 962.131 546.849C960.944 548.166 959.298 549.254 957.187 550.112C955.078 551.034 952.341 551.497 948.978 551.497ZM949.869 544.772C954.484 544.772 958.21 543.419 961.043 540.717C963.946 537.948 965.395 534.091 965.395 529.146V528.058H949.374C946.276 528.058 943.705 528.75 941.66 530.135C939.683 531.453 938.694 533.465 938.694 536.168C938.694 538.87 939.717 540.981 941.759 542.497C943.871 544.013 946.573 544.772 949.869 544.772ZM989.764 528.256V521.037H1019.04V528.256H989.764ZM1031.6 550.112V542.695H1041.29V488.302H1031.6V480.885H1058.6C1067.7 480.885 1074.72 483.191 1079.66 487.807C1084.67 492.423 1087.18 499.509 1087.18 509.07V521.927C1087.18 531.552 1084.67 538.672 1079.66 543.288C1074.72 547.838 1067.7 550.112 1058.6 550.112H1031.6ZM1049.6 542.596H1058.6C1065.33 542.596 1070.4 540.947 1073.83 537.651C1077.26 534.355 1078.97 529.245 1078.97 522.322V508.773C1078.97 501.72 1077.26 496.577 1073.83 493.345C1070.4 490.114 1065.33 488.5 1058.6 488.5H1049.6V542.596ZM1100.74 550.112V501.752H1108.35V507.685H1109.74C1110.59 505.577 1111.91 504.026 1113.69 503.037C1115.47 502.048 1117.81 501.554 1120.71 501.554H1126.45V508.674H1120.22C1116.72 508.674 1113.89 509.663 1111.71 511.641C1109.6 513.553 1108.55 516.554 1108.55 520.641V550.112H1100.74ZM1138.01 550.112V501.752H1145.83V550.112H1138.01ZM1141.97 494.236C1140.26 494.236 1138.8 493.674 1137.62 492.554C1136.5 491.434 1135.94 490.015 1135.94 488.302C1135.94 486.522 1136.5 485.07 1137.62 483.95C1138.8 482.83 1140.26 482.269 1141.97 482.269C1143.69 482.269 1145.1 482.83 1146.22 483.95C1147.34 485.07 1147.9 486.522 1147.9 488.302C1147.9 490.015 1147.34 491.434 1146.22 492.554C1145.1 493.674 1143.69 494.236 1141.97 494.236ZM1174.52 550.112L1157.21 501.752H1165.52L1180.06 544.277H1181.44L1195.98 501.752H1204.28L1186.98 550.112H1174.52ZM1235.69 551.497C1230.81 551.497 1226.52 550.476 1222.83 548.431C1219.14 546.322 1216.27 543.387 1214.23 539.629C1212.19 535.871 1211.16 531.52 1211.16 526.575V525.388C1211.16 520.376 1212.19 515.993 1214.23 512.235C1216.27 508.477 1219.11 505.577 1222.73 503.532C1226.36 501.423 1230.51 500.367 1235.19 500.367C1239.74 500.367 1243.76 501.356 1247.26 503.334C1250.75 505.245 1253.49 508.014 1255.47 511.641C1257.44 515.268 1258.43 519.521 1258.43 524.399V527.959H1218.97C1219.17 533.169 1220.85 537.256 1224.02 540.222C1227.18 543.123 1231.14 544.574 1235.89 544.574C1240.04 544.574 1243.24 543.617 1245.48 541.706C1247.72 539.795 1249.43 537.52 1250.62 534.882L1257.34 538.146C1256.36 540.19 1254.97 542.233 1253.19 544.277C1251.48 546.322 1249.2 548.035 1246.37 549.42C1243.6 550.804 1240.04 551.497 1235.69 551.497ZM1219.07 521.531H1250.52C1250.26 517.049 1248.71 513.553 1245.87 511.048C1243.1 508.543 1239.54 507.29 1235.19 507.29C1230.78 507.29 1227.15 508.543 1224.31 511.048C1221.48 513.553 1219.73 517.049 1219.07 521.531ZM1272.06 550.112V501.752H1279.67V509.96H1281.06C1282.11 507.653 1283.89 505.577 1286.4 503.73C1288.97 501.818 1292.73 500.862 1297.67 500.862C1301.3 500.862 1304.53 501.621 1307.36 503.136C1310.26 504.652 1312.57 506.894 1314.29 509.861C1316 512.828 1316.86 516.487 1316.86 520.839V550.112H1309.05V521.432C1309.05 516.618 1307.83 513.125 1305.39 510.949C1303.01 508.773 1299.78 507.685 1295.7 507.685C1291.02 507.685 1287.19 509.201 1284.22 512.235C1281.32 515.268 1279.87 519.783 1279.87 525.784V550.112H1272.06ZM1351.12 550.112L1372.48 480.885H1387.11L1408.47 550.112H1399.87L1394.53 532.607H1365.06L1359.72 550.112H1351.12ZM1367.14 525.091H1392.36L1380.49 485.928H1379.1L1367.14 525.091ZM1439.61 551.497C1435.46 551.497 1431.64 550.508 1428.14 548.53C1424.65 546.552 1421.88 543.684 1419.83 539.926C1417.79 536.168 1416.77 531.717 1416.77 526.575V525.289C1416.77 520.146 1417.79 515.728 1419.83 512.037C1421.88 508.279 1424.62 505.411 1428.04 503.433C1431.54 501.388 1435.4 500.367 1439.61 500.367C1442.98 500.367 1445.81 500.829 1448.12 501.752C1450.49 502.61 1452.4 503.73 1453.85 505.114C1455.3 506.432 1456.42 507.851 1457.22 509.367H1458.6V480.885H1466.41V550.112H1458.8V542.101H1457.41C1456.1 544.542 1454.05 546.717 1451.28 548.629C1448.51 550.54 1444.62 551.497 1439.61 551.497ZM1441.69 544.574C1446.7 544.574 1450.76 542.992 1453.85 539.827C1457.02 536.595 1458.6 532.113 1458.6 526.377V525.487C1458.6 519.751 1457.02 515.301 1453.85 512.136C1450.76 508.904 1446.7 507.29 1441.69 507.29C1436.75 507.29 1432.66 508.904 1429.43 512.136C1426.26 515.301 1424.68 519.751 1424.68 525.487V526.377C1424.68 532.113 1426.26 536.595 1429.43 539.827C1432.66 542.992 1436.75 544.574 1441.69 544.574ZM1495.05 550.112L1477.74 501.752H1486.05L1500.59 544.277H1501.97L1516.51 501.752H1524.82L1507.51 550.112H1495.05ZM1556.42 551.497C1551.54 551.497 1547.22 550.476 1543.46 548.431C1539.77 546.386 1536.87 543.518 1534.76 539.827C1532.72 536.069 1531.69 531.651 1531.69 526.575V525.289C1531.69 520.278 1532.72 515.894 1534.76 512.136C1536.87 508.378 1539.77 505.478 1543.46 503.433C1547.22 501.388 1551.54 500.367 1556.42 500.367C1561.3 500.367 1565.58 501.388 1569.27 503.433C1573.03 505.478 1575.93 508.378 1577.98 512.136C1580.08 515.894 1581.14 520.278 1581.14 525.289V526.575C1581.14 531.651 1580.08 536.069 1577.98 539.827C1575.93 543.518 1573.03 546.386 1569.27 548.431C1565.58 550.476 1561.3 551.497 1556.42 551.497ZM1556.42 544.475C1561.56 544.475 1565.65 542.861 1568.68 539.629C1571.78 536.333 1573.33 531.915 1573.33 526.377V525.487C1573.33 519.949 1571.78 515.565 1568.68 512.334C1565.65 509.038 1561.56 507.389 1556.42 507.389C1551.34 507.389 1547.25 509.038 1544.15 512.334C1541.05 515.565 1539.51 519.949 1539.51 525.487V526.377C1539.51 531.915 1541.05 536.333 1544.15 539.629C1547.25 542.861 1551.34 544.475 1556.42 544.475ZM1617.45 551.497C1612.77 551.497 1608.55 550.508 1604.79 548.53C1601.1 546.485 1598.16 543.585 1595.99 539.827C1593.88 536.069 1592.82 531.618 1592.82 526.476V525.388C1592.82 520.179 1593.88 515.728 1595.99 512.037C1598.16 508.279 1601.1 505.411 1604.79 503.433C1608.55 501.388 1612.77 500.367 1617.45 500.367C1622.06 500.367 1625.99 501.225 1629.22 502.938C1632.52 504.652 1635.09 506.926 1636.93 509.762C1638.84 512.598 1640.06 515.629 1640.59 518.861L1632.97 520.443C1632.65 518.07 1631.86 515.894 1630.6 513.916C1629.41 511.938 1627.73 510.356 1625.56 509.169C1623.38 507.982 1620.71 507.389 1617.55 507.389C1614.32 507.389 1611.42 508.113 1608.85 509.565C1606.34 511.016 1604.33 513.093 1602.81 515.795C1601.36 518.497 1600.64 521.729 1600.64 525.487V526.377C1600.64 530.135 1601.36 533.366 1602.81 536.069C1604.33 538.771 1606.34 540.848 1608.85 542.299C1611.42 543.751 1614.32 544.475 1617.55 544.475C1622.36 544.475 1626.02 543.221 1628.52 540.717C1631.1 538.212 1632.68 535.112 1633.27 531.421L1640.99 533.102C1640.26 536.267 1638.94 539.266 1637.03 542.101C1635.12 544.937 1632.52 547.212 1629.22 548.925C1625.99 550.639 1622.06 551.497 1617.45 551.497ZM1669.14 551.497C1665.78 551.497 1662.71 550.903 1659.94 549.717C1657.17 548.53 1655 546.816 1653.41 544.574C1651.83 542.331 1651.04 539.597 1651.04 536.365C1651.04 533.07 1651.83 530.365 1653.41 528.256C1655 526.08 1657.17 524.466 1659.94 523.41C1662.71 522.29 1665.81 521.729 1669.24 521.729H1685.55V518.169C1685.55 514.739 1684.53 512.037 1682.49 510.059C1680.51 508.081 1677.54 507.092 1673.59 507.092C1669.7 507.092 1666.67 508.049 1664.49 509.96C1662.31 511.807 1660.83 514.312 1660.04 517.476L1652.72 515.103C1653.51 512.4 1654.76 509.96 1656.48 507.784C1658.19 505.542 1660.47 503.762 1663.3 502.444C1666.2 501.059 1669.66 500.367 1673.69 500.367C1679.88 500.367 1684.7 501.982 1688.12 505.213C1691.55 508.378 1693.27 512.86 1693.27 518.663V540.519C1693.27 542.497 1694.19 543.486 1696.03 543.486H1700.49V550.112H1693.66C1691.49 550.112 1689.74 549.519 1688.42 548.332C1687.1 547.078 1686.44 545.432 1686.44 543.387V542.893H1685.26C1684.53 544.146 1683.54 545.464 1682.29 546.849C1681.1 548.166 1679.45 549.254 1677.35 550.112C1675.23 551.034 1672.5 551.497 1669.14 551.497ZM1670.03 544.772C1674.64 544.772 1678.37 543.419 1681.2 540.717C1684.1 537.948 1685.55 534.091 1685.55 529.146V528.058H1669.53C1666.43 528.058 1663.86 528.75 1661.82 530.135C1659.84 531.453 1658.85 533.465 1658.85 536.168C1658.85 538.87 1659.87 540.981 1661.92 542.497C1664.03 544.013 1666.73 544.772 1670.03 544.772ZM1732.08 551.497C1727.4 551.497 1723.18 550.508 1719.42 548.53C1715.73 546.485 1712.8 543.585 1710.62 539.827C1708.51 536.069 1707.46 531.618 1707.46 526.476V525.388C1707.46 520.179 1708.51 515.728 1710.62 512.037C1712.8 508.279 1715.73 505.411 1719.42 503.433C1723.18 501.388 1727.4 500.367 1732.08 500.367C1736.7 500.367 1740.62 501.225 1743.85 502.938C1747.15 504.652 1749.72 506.926 1751.56 509.762C1753.48 512.598 1754.7 515.629 1755.22 518.861L1747.61 520.443C1747.28 518.07 1746.49 515.894 1745.24 513.916C1744.05 511.938 1742.37 510.356 1740.19 509.169C1738.02 507.982 1735.35 507.389 1732.18 507.389C1728.95 507.389 1726.05 508.113 1723.48 509.565C1720.97 511.016 1718.96 513.093 1717.45 515.795C1716 518.497 1715.27 521.729 1715.27 525.487V526.377C1715.27 530.135 1716 533.366 1717.45 536.069C1718.96 538.771 1720.97 540.848 1723.48 542.299C1726.05 543.751 1728.95 544.475 1732.18 544.475C1736.99 544.475 1740.65 543.221 1743.16 540.717C1745.73 538.212 1747.31 535.112 1747.91 531.421L1755.62 533.102C1754.89 536.267 1753.58 539.266 1751.66 542.101C1749.75 544.937 1747.15 547.212 1743.85 548.925C1740.62 550.639 1736.7 551.497 1732.08 551.497ZM1774.77 569.891V562.969H1802.46C1804.37 562.969 1805.33 561.98 1805.33 560.002V542.398H1803.94C1803.28 543.783 1802.26 545.167 1800.88 546.552C1799.56 547.87 1797.81 548.958 1795.64 549.815C1793.46 550.607 1790.73 551.002 1787.43 551.002C1783.93 551.002 1780.71 550.243 1777.74 548.728C1774.84 547.212 1772.53 544.969 1770.82 542.003C1769.17 539.036 1768.34 535.409 1768.34 531.124V501.752H1776.16V530.531C1776.16 535.278 1777.34 538.739 1779.72 540.915C1782.15 543.09 1785.42 544.178 1789.51 544.178C1794.12 544.178 1797.91 542.663 1800.88 539.629C1803.85 536.595 1805.33 532.081 1805.33 526.08V501.752H1813.14V561.386C1813.14 564.024 1812.38 566.101 1810.87 567.617C1809.42 569.132 1807.27 569.891 1804.44 569.891H1774.77Z" fill="white"/>
</g>
<defs>
<clipPath id="clip0_9_17">
<rect width="2366" height="717" fill="white"/>
</clipPath>
</defs>
</svg>
