<svg width="957" height="290" viewBox="0 0 957 290" fill="none" xmlns="http://www.w3.org/2000/svg">
<path d="M80.2 126.8V204.8C80.2 226.667 76.4 243.333 68.8 254.8C61.3333 266.267 49.0667 272 32 272C20.9333 272 12.8667 269.8 7.8 265.4C2.6 261 -1.19209e-06 255.867 -1.19209e-06 250C-1.19209e-06 244.133 1.73333 239.6 5.2 236.4C8.66667 233.333 13 231.8 18.2 231.8C23.4 231.8 27.3333 233.2 30 236C32.5333 238.933 33.8 242.133 33.8 245.6C33.8 249.067 33.4 252.4 32.6 255.6H25C22.8667 259.2 22.6 262.267 24.2 264.8C25.6667 267.333 28.4 268.6 32.4 268.6C36.5333 268.6 39.3333 266.267 40.8 261.6C42.2667 257.067 43 247.6 43 233.2V130.4H30V126.8H80.2ZM61.2 113C54.1333 113 49.0667 111.2 46 107.6C43.0667 104 41.6 99.5333 41.6 94.2C41.6 88.8667 43.2 84.4667 46.4 81C49.7333 77.5333 54.7333 75.8 61.4 75.8C68.0667 75.8 73.1333 77.4 76.6 80.6C80.0667 83.6667 81.8 88.1333 81.8 94C81.8 99.7333 80.1333 104.333 76.8 107.8C73.4667 111.267 68.2667 113 61.2 113ZM201.709 82H255.109V85.8H244.109V218.2H255.109V222H194.109V218.2H205.109V93.2H204.309L174.309 222H149.309L114.109 92.6H113.309V218.2H124.309V222H97.1094V218.2H108.109V85.8H97.1094V82H151.109L177.709 185L201.709 82Z" fill="white"/>
<path d="M334.3 155.9C327.433 155.9 322 153.967 318 150.1C314.067 146.233 312.1 140.7 312.1 133.5V128.1H320.4V133.5C320.4 137.833 321.533 141.367 323.8 144.1C326.133 146.833 329.6 148.2 334.2 148.2C338.867 148.2 342.167 146.867 344.1 144.2C346.033 141.467 347 137.9 347 133.5V92.1H334.7V84.5H363V92.1H355.4V133.5C355.4 140.767 353.6 146.333 350 150.2C346.4 154 341.167 155.9 334.3 155.9ZM391.738 155.4C388.205 155.4 384.938 154.633 381.938 153.1C379.005 151.567 376.672 149.3 374.938 146.3C373.272 143.233 372.438 139.533 372.438 135.2V105.6H380.338V134.6C380.338 139.467 381.538 143 383.938 145.2C386.405 147.4 389.705 148.5 393.838 148.5C398.505 148.5 402.338 146.967 405.338 143.9C408.338 140.833 409.838 136.267 409.838 130.2V105.6H417.738V154.5H410.038V146.2H408.638C407.572 148.533 405.738 150.667 403.138 152.6C400.538 154.467 396.738 155.4 391.738 155.4ZM453.969 155.9C447.902 155.9 442.769 154.5 438.569 151.7C434.435 148.9 431.935 144.467 431.069 138.4L438.569 136.7C439.102 139.9 440.102 142.433 441.569 144.3C443.035 146.1 444.835 147.4 446.969 148.2C449.169 148.933 451.502 149.3 453.969 149.3C457.635 149.3 460.535 148.567 462.669 147.1C464.802 145.633 465.869 143.667 465.869 141.2C465.869 138.667 464.835 136.9 462.769 135.9C460.769 134.833 458.002 133.967 454.469 133.3L450.369 132.6C447.235 132.067 444.369 131.233 441.769 130.1C439.169 128.967 437.102 127.433 435.569 125.5C434.035 123.567 433.269 121.133 433.269 118.2C433.269 113.8 434.969 110.367 438.369 107.9C441.769 105.433 446.269 104.2 451.869 104.2C457.402 104.2 461.869 105.467 465.269 108C468.735 110.467 470.969 113.967 471.969 118.5L464.569 120.4C463.969 116.867 462.535 114.4 460.269 113C458.002 111.533 455.202 110.8 451.869 110.8C448.535 110.8 445.902 111.433 443.969 112.7C442.035 113.9 441.069 115.7 441.069 118.1C441.069 120.433 441.969 122.167 443.769 123.3C445.635 124.367 448.102 125.167 451.169 125.7L455.269 126.4C458.735 127 461.835 127.833 464.569 128.9C467.369 129.9 469.569 131.367 471.169 133.3C472.835 135.233 473.669 137.767 473.669 140.9C473.669 145.7 471.869 149.4 468.269 152C464.735 154.6 459.969 155.9 453.969 155.9ZM503.929 154.5C501.129 154.5 498.962 153.733 497.429 152.2C495.962 150.667 495.229 148.567 495.229 145.9V112.5H480.529V105.6H495.229V88.2H503.129V105.6H519.129V112.5H503.129V144.7C503.129 146.7 504.096 147.7 506.029 147.7H516.929V154.5H503.929ZM531.925 154.5V105.6H539.825V154.5H531.925ZM535.925 98C534.192 98 532.725 97.4333 531.525 96.3C530.392 95.1667 529.825 93.7333 529.825 92C529.825 90.2 530.392 88.7333 531.525 87.6C532.725 86.4667 534.192 85.9 535.925 85.9C537.658 85.9 539.092 86.4667 540.225 87.6C541.358 88.7333 541.925 90.2 541.925 92C541.925 93.7333 541.358 95.1667 540.225 96.3C539.092 97.4333 537.658 98 535.925 98ZM578.937 155.9C574.203 155.9 569.937 154.9 566.137 152.9C562.403 150.833 559.437 147.9 557.237 144.1C555.103 140.3 554.037 135.8 554.037 130.6V129.5C554.037 124.233 555.103 119.733 557.237 116C559.437 112.2 562.403 109.3 566.137 107.3C569.937 105.233 574.203 104.2 578.937 104.2C583.603 104.2 587.57 105.067 590.837 106.8C594.17 108.533 596.77 110.833 598.637 113.7C600.57 116.567 601.803 119.633 602.337 122.9L594.637 124.5C594.303 122.1 593.503 119.9 592.237 117.9C591.037 115.9 589.337 114.3 587.137 113.1C584.937 111.9 582.237 111.3 579.037 111.3C575.77 111.3 572.837 112.033 570.237 113.5C567.703 114.967 565.67 117.067 564.137 119.8C562.67 122.533 561.937 125.8 561.937 129.6V130.5C561.937 134.3 562.67 137.567 564.137 140.3C565.67 143.033 567.703 145.133 570.237 146.6C572.837 148.067 575.77 148.8 579.037 148.8C583.903 148.8 587.603 147.533 590.137 145C592.737 142.467 594.337 139.333 594.937 135.6L602.737 137.3C602.003 140.5 600.67 143.533 598.737 146.4C596.803 149.267 594.17 151.567 590.837 153.3C587.57 155.033 583.603 155.9 578.937 155.9ZM638.602 155.9C633.669 155.9 629.336 154.867 625.602 152.8C621.869 150.667 618.969 147.7 616.902 143.9C614.836 140.1 613.802 135.7 613.802 130.7V129.5C613.802 124.433 614.836 120 616.902 116.2C618.969 112.4 621.836 109.467 625.502 107.4C629.169 105.267 633.369 104.2 638.102 104.2C642.702 104.2 646.769 105.2 650.302 107.2C653.836 109.133 656.602 111.933 658.602 115.6C660.602 119.267 661.602 123.567 661.602 128.5V132.1H621.702C621.902 137.367 623.602 141.5 626.802 144.5C630.002 147.433 634.002 148.9 638.802 148.9C643.002 148.9 646.236 147.933 648.502 146C650.769 144.067 652.502 141.767 653.702 139.1L660.502 142.4C659.502 144.467 658.102 146.533 656.302 148.6C654.569 150.667 652.269 152.4 649.402 153.8C646.602 155.2 643.002 155.9 638.602 155.9ZM621.802 125.6H653.602C653.336 121.067 651.769 117.533 648.902 115C646.102 112.467 642.502 111.2 638.102 111.2C633.636 111.2 629.969 112.467 627.102 115C624.236 117.533 622.469 121.067 621.802 125.6ZM675.082 154.5V84.5H691.082L709.682 149.2H710.982L729.582 84.5H745.582V154.5H737.482V90H736.082L717.582 154.5H703.082L684.582 90H683.182V154.5H675.082ZM761.905 154.5V105.6H769.805V154.5H761.905ZM765.905 98C764.172 98 762.705 97.4333 761.505 96.3C760.372 95.1667 759.805 93.7333 759.805 92C759.805 90.2 760.372 88.7333 761.505 87.6C762.705 86.4667 764.172 85.9 765.905 85.9C767.639 85.9 769.072 86.4667 770.205 87.6C771.339 88.7333 771.905 90.2 771.905 92C771.905 93.7333 771.339 95.1667 770.205 96.3C769.072 97.4333 767.639 98 765.905 98ZM786.417 154.5V105.6H794.117V113.9H795.517C796.584 111.567 798.384 109.467 800.917 107.6C803.517 105.667 807.317 104.7 812.317 104.7C815.984 104.7 819.251 105.467 822.117 107C825.051 108.533 827.384 110.8 829.117 113.8C830.851 116.8 831.717 120.5 831.717 124.9V154.5H823.817V125.5C823.817 120.633 822.584 117.1 820.117 114.9C817.717 112.7 814.451 111.6 810.317 111.6C805.584 111.6 801.717 113.133 798.717 116.2C795.784 119.267 794.317 123.833 794.317 129.9V154.5H786.417ZM868.445 155.9C864.245 155.9 860.379 154.9 856.845 152.9C853.312 150.9 850.512 148 848.445 144.2C846.379 140.4 845.345 135.9 845.345 130.7V129.4C845.345 124.2 846.379 119.733 848.445 116C850.512 112.2 853.279 109.3 856.745 107.3C860.279 105.233 864.179 104.2 868.445 104.2C871.845 104.2 874.712 104.667 877.045 105.6C879.445 106.467 881.379 107.6 882.845 109C884.312 110.333 885.445 111.767 886.245 113.3H887.645V84.5H895.545V154.5H887.845V146.4H886.445C885.112 148.867 883.045 151.067 880.245 153C877.445 154.933 873.512 155.9 868.445 155.9ZM870.545 148.9C875.612 148.9 879.712 147.3 882.845 144.1C886.045 140.833 887.645 136.3 887.645 130.5V129.6C887.645 123.8 886.045 119.3 882.845 116.1C879.712 112.833 875.612 111.2 870.545 111.2C865.545 111.2 861.412 112.833 858.145 116.1C854.945 119.3 853.345 123.8 853.345 129.6V130.5C853.345 136.3 854.945 140.833 858.145 144.1C861.412 147.3 865.545 148.9 870.545 148.9ZM931.801 155.9C925.734 155.9 920.601 154.5 916.401 151.7C912.267 148.9 909.767 144.467 908.901 138.4L916.401 136.7C916.934 139.9 917.934 142.433 919.401 144.3C920.867 146.1 922.667 147.4 924.801 148.2C927.001 148.933 929.334 149.3 931.801 149.3C935.467 149.3 938.367 148.567 940.501 147.1C942.634 145.633 943.701 143.667 943.701 141.2C943.701 138.667 942.667 136.9 940.601 135.9C938.601 134.833 935.834 133.967 932.301 133.3L928.201 132.6C925.067 132.067 922.201 131.233 919.601 130.1C917.001 128.967 914.934 127.433 913.401 125.5C911.867 123.567 911.101 121.133 911.101 118.2C911.101 113.8 912.801 110.367 916.201 107.9C919.601 105.433 924.101 104.2 929.701 104.2C935.234 104.2 939.701 105.467 943.101 108C946.567 110.467 948.801 113.967 949.801 118.5L942.401 120.4C941.801 116.867 940.367 114.4 938.101 113C935.834 111.533 933.034 110.8 929.701 110.8C926.367 110.8 923.734 111.433 921.801 112.7C919.867 113.9 918.901 115.7 918.901 118.1C918.901 120.433 919.801 122.167 921.601 123.3C923.467 124.367 925.934 125.167 929.001 125.7L933.101 126.4C936.567 127 939.667 127.833 942.401 128.9C945.201 129.9 947.401 131.367 949.001 133.3C950.667 135.233 951.501 137.767 951.501 140.9C951.501 145.7 949.701 149.4 946.101 152C942.567 154.6 937.801 155.9 931.801 155.9Z" fill="white"/>
<path d="M309.88 222.5V219.5H313.8V197.5H309.88V194.5H320.8C324.48 194.5 327.32 195.433 329.32 197.3C331.347 199.167 332.36 202.033 332.36 205.9V211.1C332.36 214.993 331.347 217.873 329.32 219.74C327.32 221.58 324.48 222.5 320.8 222.5H309.88ZM317.16 219.46H320.8C323.52 219.46 325.573 218.793 326.96 217.46C328.347 216.127 329.04 214.06 329.04 211.26V205.78C329.04 202.927 328.347 200.847 326.96 199.54C325.573 198.233 323.52 197.58 320.8 197.58H317.16V219.46ZM343.843 223.06C342.483 223.06 341.243 222.82 340.123 222.34C339.003 221.86 338.123 221.167 337.483 220.26C336.843 219.353 336.523 218.247 336.523 216.94C336.523 215.607 336.843 214.513 337.483 213.66C338.123 212.78 339.003 212.127 340.123 211.7C341.243 211.247 342.497 211.02 343.883 211.02H350.483V209.58C350.483 208.193 350.07 207.1 349.243 206.3C348.443 205.5 347.243 205.1 345.643 205.1C344.07 205.1 342.843 205.487 341.963 206.26C341.083 207.007 340.483 208.02 340.163 209.3L337.203 208.34C337.523 207.247 338.03 206.26 338.723 205.38C339.417 204.473 340.337 203.753 341.483 203.22C342.657 202.66 344.057 202.38 345.683 202.38C348.19 202.38 350.137 203.033 351.523 204.34C352.91 205.62 353.603 207.433 353.603 209.78V218.62C353.603 219.42 353.977 219.82 354.723 219.82H356.523V222.5H353.763C352.883 222.5 352.177 222.26 351.643 221.78C351.11 221.273 350.843 220.607 350.843 219.78V219.58H350.363C350.07 220.087 349.67 220.62 349.163 221.18C348.683 221.713 348.017 222.153 347.163 222.5C346.31 222.873 345.203 223.06 343.843 223.06ZM344.203 220.34C346.07 220.34 347.577 219.793 348.723 218.7C349.897 217.58 350.483 216.02 350.483 214.02V213.58H344.003C342.75 213.58 341.71 213.86 340.883 214.42C340.083 214.953 339.683 215.767 339.683 216.86C339.683 217.953 340.097 218.807 340.923 219.42C341.777 220.033 342.87 220.34 344.203 220.34ZM366.762 222.5C365.642 222.5 364.776 222.193 364.162 221.58C363.576 220.967 363.282 220.127 363.282 219.06V205.7H357.402V202.94H363.282V195.98H366.442V202.94H372.842V205.7H366.442V218.58C366.442 219.38 366.829 219.78 367.602 219.78H371.962V222.5H366.762ZM383.843 223.06C382.483 223.06 381.243 222.82 380.123 222.34C379.003 221.86 378.123 221.167 377.483 220.26C376.843 219.353 376.523 218.247 376.523 216.94C376.523 215.607 376.843 214.513 377.483 213.66C378.123 212.78 379.003 212.127 380.123 211.7C381.243 211.247 382.497 211.02 383.883 211.02H390.483V209.58C390.483 208.193 390.07 207.1 389.243 206.3C388.443 205.5 387.243 205.1 385.643 205.1C384.07 205.1 382.843 205.487 381.963 206.26C381.083 207.007 380.483 208.02 380.163 209.3L377.203 208.34C377.523 207.247 378.03 206.26 378.723 205.38C379.417 204.473 380.337 203.753 381.483 203.22C382.657 202.66 384.057 202.38 385.683 202.38C388.19 202.38 390.137 203.033 391.523 204.34C392.91 205.62 393.603 207.433 393.603 209.78V218.62C393.603 219.42 393.977 219.82 394.723 219.82H396.523V222.5H393.763C392.883 222.5 392.177 222.26 391.643 221.78C391.11 221.273 390.843 220.607 390.843 219.78V219.58H390.363C390.07 220.087 389.67 220.62 389.163 221.18C388.683 221.713 388.017 222.153 387.163 222.5C386.31 222.873 385.203 223.06 383.843 223.06ZM384.203 220.34C386.07 220.34 387.577 219.793 388.723 218.7C389.897 217.58 390.483 216.02 390.483 214.02V213.58H384.003C382.75 213.58 381.71 213.86 380.883 214.42C380.083 214.953 379.683 215.767 379.683 216.86C379.683 217.953 380.097 218.807 380.923 219.42C381.777 220.033 382.87 220.34 384.203 220.34ZM400.34 213.66V210.74H412.18V213.66H400.34ZM417.263 222.5V219.5H421.183V197.5H417.263V194.5H428.183C431.863 194.5 434.703 195.433 436.703 197.3C438.729 199.167 439.743 202.033 439.743 205.9V211.1C439.743 214.993 438.729 217.873 436.703 219.74C434.703 221.58 431.863 222.5 428.183 222.5H417.263ZM424.543 219.46H428.183C430.903 219.46 432.956 218.793 434.343 217.46C435.729 216.127 436.423 214.06 436.423 211.26V205.78C436.423 202.927 435.729 200.847 434.343 199.54C432.956 198.233 430.903 197.58 428.183 197.58H424.543V219.46ZM445.226 222.5V202.94H448.306V205.34H448.866C449.213 204.487 449.746 203.86 450.466 203.46C451.186 203.06 452.133 202.86 453.306 202.86H455.626V205.74H453.106C451.693 205.74 450.546 206.14 449.666 206.94C448.813 207.713 448.386 208.927 448.386 210.58V222.5H445.226ZM460.304 222.5V202.94H463.464V222.5H460.304ZM461.904 199.9C461.211 199.9 460.624 199.673 460.144 199.22C459.691 198.767 459.464 198.193 459.464 197.5C459.464 196.78 459.691 196.193 460.144 195.74C460.624 195.287 461.211 195.06 461.904 195.06C462.598 195.06 463.171 195.287 463.624 195.74C464.078 196.193 464.304 196.78 464.304 197.5C464.304 198.193 464.078 198.767 463.624 199.22C463.171 199.673 462.598 199.9 461.904 199.9ZM475.069 222.5L468.069 202.94H471.429L477.309 220.14H477.869L483.749 202.94H487.109L480.109 222.5H475.069ZM499.811 223.06C497.838 223.06 496.105 222.647 494.611 221.82C493.118 220.967 491.958 219.78 491.131 218.26C490.305 216.74 489.891 214.98 489.891 212.98V212.5C489.891 210.473 490.305 208.7 491.131 207.18C491.958 205.66 493.105 204.487 494.571 203.66C496.038 202.807 497.718 202.38 499.611 202.38C501.451 202.38 503.078 202.78 504.491 203.58C505.905 204.353 507.011 205.473 507.811 206.94C508.611 208.407 509.011 210.127 509.011 212.1V213.54H493.051C493.131 215.647 493.811 217.3 495.091 218.5C496.371 219.673 497.971 220.26 499.891 220.26C501.571 220.26 502.865 219.873 503.771 219.1C504.678 218.327 505.371 217.407 505.851 216.34L508.571 217.66C508.171 218.487 507.611 219.313 506.891 220.14C506.198 220.967 505.278 221.66 504.131 222.22C503.011 222.78 501.571 223.06 499.811 223.06ZM493.091 210.94H505.811C505.705 209.127 505.078 207.713 503.931 206.7C502.811 205.687 501.371 205.18 499.611 205.18C497.825 205.18 496.358 205.687 495.211 206.7C494.065 207.713 493.358 209.127 493.091 210.94ZM514.523 222.5V202.94H517.603V206.26H518.163C518.59 205.327 519.31 204.487 520.323 203.74C521.363 202.967 522.883 202.58 524.883 202.58C526.35 202.58 527.656 202.887 528.803 203.5C529.976 204.113 530.91 205.02 531.603 206.22C532.296 207.42 532.643 208.9 532.643 210.66V222.5H529.483V210.9C529.483 208.953 528.99 207.54 528.003 206.66C527.043 205.78 525.736 205.34 524.083 205.34C522.19 205.34 520.643 205.953 519.443 207.18C518.27 208.407 517.683 210.233 517.683 212.66V222.5H514.523ZM546.5 222.5L555.14 194.5H561.06L569.7 222.5H566.22L564.06 215.42H552.14L549.98 222.5H546.5ZM552.98 212.38H563.18L558.38 196.54H557.82L552.98 212.38ZM582.295 223.06C580.615 223.06 579.069 222.66 577.655 221.86C576.242 221.06 575.122 219.9 574.295 218.38C573.469 216.86 573.055 215.06 573.055 212.98V212.46C573.055 210.38 573.469 208.593 574.295 207.1C575.122 205.58 576.229 204.42 577.615 203.62C579.029 202.793 580.589 202.38 582.295 202.38C583.655 202.38 584.802 202.567 585.735 202.94C586.695 203.287 587.469 203.74 588.055 204.3C588.642 204.833 589.095 205.407 589.415 206.02H589.975V194.5H593.135V222.5H590.055V219.26H589.495C588.962 220.247 588.135 221.127 587.015 221.9C585.895 222.673 584.322 223.06 582.295 223.06ZM583.135 220.26C585.162 220.26 586.802 219.62 588.055 218.34C589.335 217.033 589.975 215.22 589.975 212.9V212.54C589.975 210.22 589.335 208.42 588.055 207.14C586.802 205.833 585.162 205.18 583.135 205.18C581.135 205.18 579.482 205.833 578.175 207.14C576.895 208.42 576.255 210.22 576.255 212.54V212.9C576.255 215.22 576.895 217.033 578.175 218.34C579.482 219.62 581.135 220.26 583.135 220.26ZM604.718 222.5L597.718 202.94H601.078L606.958 220.14H607.518L613.398 202.94H616.758L609.758 222.5H604.718ZM629.54 223.06C627.566 223.06 625.82 222.647 624.3 221.82C622.806 220.993 621.633 219.833 620.78 218.34C619.953 216.82 619.54 215.033 619.54 212.98V212.46C619.54 210.433 619.953 208.66 620.78 207.14C621.633 205.62 622.806 204.447 624.3 203.62C625.82 202.793 627.566 202.38 629.54 202.38C631.513 202.38 633.246 202.793 634.74 203.62C636.26 204.447 637.433 205.62 638.26 207.14C639.113 208.66 639.54 210.433 639.54 212.46V212.98C639.54 215.033 639.113 216.82 638.26 218.34C637.433 219.833 636.26 220.993 634.74 221.82C633.246 222.647 631.513 223.06 629.54 223.06ZM629.54 220.22C631.62 220.22 633.273 219.567 634.5 218.26C635.753 216.927 636.38 215.14 636.38 212.9V212.54C636.38 210.3 635.753 208.527 634.5 207.22C633.273 205.887 631.62 205.22 629.54 205.22C627.486 205.22 625.833 205.887 624.58 207.22C623.326 208.527 622.7 210.3 622.7 212.54V212.9C622.7 215.14 623.326 216.927 624.58 218.26C625.833 219.567 627.486 220.22 629.54 220.22ZM654.226 223.06C652.333 223.06 650.626 222.66 649.106 221.86C647.613 221.033 646.426 219.86 645.546 218.34C644.693 216.82 644.266 215.02 644.266 212.94V212.5C644.266 210.393 644.693 208.593 645.546 207.1C646.426 205.58 647.613 204.42 649.106 203.62C650.626 202.793 652.333 202.38 654.226 202.38C656.093 202.38 657.68 202.727 658.986 203.42C660.32 204.113 661.36 205.033 662.106 206.18C662.88 207.327 663.373 208.553 663.586 209.86L660.506 210.5C660.373 209.54 660.053 208.66 659.546 207.86C659.066 207.06 658.386 206.42 657.506 205.94C656.626 205.46 655.546 205.22 654.266 205.22C652.96 205.22 651.786 205.513 650.746 206.1C649.733 206.687 648.92 207.527 648.306 208.62C647.72 209.713 647.426 211.02 647.426 212.54V212.9C647.426 214.42 647.72 215.727 648.306 216.82C648.92 217.913 649.733 218.753 650.746 219.34C651.786 219.927 652.96 220.22 654.266 220.22C656.213 220.22 657.693 219.713 658.706 218.7C659.746 217.687 660.386 216.433 660.626 214.94L663.746 215.62C663.453 216.9 662.92 218.113 662.146 219.26C661.373 220.407 660.32 221.327 658.986 222.02C657.68 222.713 656.093 223.06 654.226 223.06ZM675.133 223.06C673.773 223.06 672.533 222.82 671.413 222.34C670.293 221.86 669.413 221.167 668.773 220.26C668.133 219.353 667.813 218.247 667.813 216.94C667.813 215.607 668.133 214.513 668.773 213.66C669.413 212.78 670.293 212.127 671.413 211.7C672.533 211.247 673.786 211.02 675.173 211.02H681.773V209.58C681.773 208.193 681.359 207.1 680.533 206.3C679.733 205.5 678.533 205.1 676.933 205.1C675.359 205.1 674.133 205.487 673.253 206.26C672.373 207.007 671.773 208.02 671.453 209.3L668.493 208.34C668.813 207.247 669.319 206.26 670.013 205.38C670.706 204.473 671.626 203.753 672.773 203.22C673.946 202.66 675.346 202.38 676.973 202.38C679.479 202.38 681.426 203.033 682.813 204.34C684.199 205.62 684.893 207.433 684.893 209.78V218.62C684.893 219.42 685.266 219.82 686.012 219.82H687.813V222.5H685.053C684.173 222.5 683.466 222.26 682.933 221.78C682.399 221.273 682.133 220.607 682.133 219.78V219.58H681.653C681.359 220.087 680.959 220.62 680.453 221.18C679.973 221.713 679.306 222.153 678.453 222.5C677.599 222.873 676.493 223.06 675.133 223.06ZM675.493 220.34C677.359 220.34 678.866 219.793 680.013 218.7C681.186 217.58 681.773 216.02 681.773 214.02V213.58H675.293C674.039 213.58 672.999 213.86 672.173 214.42C671.373 214.953 670.973 215.767 670.973 216.86C670.973 217.953 671.386 218.807 672.213 219.42C673.066 220.033 674.159 220.34 675.493 220.34ZM700.593 223.06C698.7 223.06 696.993 222.66 695.473 221.86C693.98 221.033 692.793 219.86 691.913 218.34C691.06 216.82 690.633 215.02 690.633 212.94V212.5C690.633 210.393 691.06 208.593 691.913 207.1C692.793 205.58 693.98 204.42 695.473 203.62C696.993 202.793 698.7 202.38 700.593 202.38C702.46 202.38 704.047 202.727 705.353 203.42C706.687 204.113 707.727 205.033 708.473 206.18C709.247 207.327 709.74 208.553 709.953 209.86L706.873 210.5C706.74 209.54 706.42 208.66 705.913 207.86C705.433 207.06 704.753 206.42 703.873 205.94C702.993 205.46 701.913 205.22 700.633 205.22C699.327 205.22 698.153 205.513 697.113 206.1C696.1 206.687 695.287 207.527 694.673 208.62C694.087 209.713 693.793 211.02 693.793 212.54V212.9C693.793 214.42 694.087 215.727 694.673 216.82C695.287 217.913 696.1 218.753 697.113 219.34C698.153 219.927 699.327 220.22 700.633 220.22C702.58 220.22 704.06 219.713 705.073 218.7C706.113 217.687 706.753 216.433 706.993 214.94L710.113 215.62C709.82 216.9 709.287 218.113 708.513 219.26C707.74 220.407 706.687 221.327 705.353 222.02C704.047 222.713 702.46 223.06 700.593 223.06ZM717.86 230.5V227.7H729.06C729.833 227.7 730.22 227.3 730.22 226.5V219.38H729.66C729.393 219.94 728.98 220.5 728.42 221.06C727.886 221.593 727.18 222.033 726.3 222.38C725.42 222.7 724.313 222.86 722.98 222.86C721.566 222.86 720.26 222.553 719.06 221.94C717.886 221.327 716.953 220.42 716.26 219.22C715.593 218.02 715.26 216.553 715.26 214.82V202.94H718.42V214.58C718.42 216.5 718.9 217.9 719.86 218.78C720.846 219.66 722.166 220.1 723.82 220.1C725.686 220.1 727.22 219.487 728.42 218.26C729.62 217.033 730.22 215.207 730.22 212.78V202.94H733.38V227.06C733.38 228.127 733.073 228.967 732.46 229.58C731.873 230.193 731.006 230.5 729.86 230.5H717.86Z" fill="white"/>
</svg>
